<svg version="1.1" id="house" xmlns="http://www.w3.org/2000/svg" viewBox="0 0 90.7 99.1" width="100%" preserveAspectRatio="xMidYMid meet" svg-draw>
<g>
	<g>
		<g>
			<path fill="#1F1E5B" d="M0.4,99.1c3.9,0.1,7.8,0,11.7-0.1c7.2-0.1,14.5-0.1,21.7-0.2c15.4-0.2,30.7-0.4,46.1-0.5
				c3.4,0,6.9-0.1,10.3-0.1c0.6,0,0.7-0.9,0.1-0.9c-11.6,0-23.1,0.1-34.7,0.3c-15.2,0.2-30.4,0.4-45.6,0.6c-3.2,0-6.3,0-9.5,0.1
				C-0.1,98.2-0.2,99.1,0.4,99.1L0.4,99.1z"/>
		</g>
	</g>
	<g>
		<g>
			<path fill="#1F1E5B" d="M80.2,97.3c-0.2,0.3-2.2,0.1-2.5,0.1c-1.4,0-2.9,0.2-4.3,0.1c-2.3-0.1-4.6-0.6-7-0.2
				c-0.4,0.1-0.3,0.6,0.1,0.6c2.8-0.5,5.4,0.4,8.1,0.2c1.5-0.1,3-0.1,4.5-0.1c0.4,0,1.2,0.1,1.5-0.3C80.7,97.3,80.4,97.1,80.2,97.3
				L80.2,97.3z"/>
		</g>
	</g>
	<g>
		<g>
			<path fill="#1F1E5B" d="M50.8,98.2c0-0.6,0-1.2,0.1-1.8c0-0.2,0-0.4-0.2-0.4c-0.8,0-1.5,0.1-2.3-0.1c-0.1,0-0.3,0.1-0.3,0.2
				c0,0.6,0.1,1.3-0.1,1.9c0,0.1,0.1,0.3,0.2,0.3c0.7,0,1.4,0.1,2.1,0c0.3,0,0.3-0.5,0-0.5c-0.7-0.1-1.4,0-2.1,0
				c0.1,0.1,0.2,0.2,0.2,0.3c0.1-0.6,0-1.3,0.1-1.9c-0.1,0.1-0.2,0.2-0.3,0.2c0.8,0.2,1.5,0.1,2.3,0.1c-0.1-0.1-0.1-0.2-0.2-0.4
				c-0.2,0.6-0.1,1.3-0.1,1.9C50.3,98.4,50.8,98.5,50.8,98.2L50.8,98.2z"/>
		</g>
	</g>
	<g>
		<g>
			<path fill="#1F1E5B" d="M34.5,98.2c0-0.2,0-0.4,0-0.6c0-0.4-0.1-0.8,0-1.2c0-0.2-0.1-0.4-0.3-0.3c-0.8,0.1-1.5-0.1-2.2,0
				c-0.1,0-0.2,0.1-0.2,0.2c0,0.5,0,1.1,0,1.6c0,0.2,0.1,0.3,0.2,0.3C32.8,98.3,33.7,98.4,34.5,98.2c0.3-0.1,0.2-0.6-0.1-0.5
				c-0.7,0.1-1.5,0.1-2.2,0c0.1,0.1,0.2,0.2,0.2,0.3c0-0.5,0-1.1-0.1-1.6c-0.1,0.1-0.2,0.2-0.2,0.2c0.8-0.1,1.5,0.2,2.3,0
				c-0.1-0.1-0.2-0.2-0.3-0.2c-0.1,0.3-0.1,0.7,0,1c0,0.4,0.2,0.6,0.3,0.9C34.3,98.3,34.5,98.3,34.5,98.2L34.5,98.2z"/>
		</g>
	</g>
	<g>
		<g>
			<g>
				<path fill="#1F1E5B" d="M53.7,66.3c0,1.5,0,3,0,4.5c0,0.7,0,1.5,0,2.2c0,0.3-1.9,0.2-2.2,0.2c-0.7,0-1.5,0-2.2,0
					c-0.8,0-0.6-1-0.6-1.7c-0.1-1.8,0-3.5-0.1-5.3c-0.1,0.1-0.2,0.2-0.3,0.2c1.9,0.1,3.8,0,5.7,0c0.4,0,0.4-0.6,0.1-0.6
					c-1.9,0-3.8,0-5.7,0c-0.1,0-0.3,0.1-0.3,0.3c0.1,2.4,0,4.9,0.2,7.3c0,0.1,0.1,0.2,0.2,0.2c1.8,0,3.7,0.1,5.5-0.1
					c0.1,0,0.2-0.1,0.2-0.2c-0.1-2.4,0.1-4.8-0.1-7.2C54.2,66,53.7,66,53.7,66.3L53.7,66.3z"/>
			</g>
		</g>
		<g>
			<g>
				<path fill="#1F1E5B" d="M51,66.2c-0.2,1.2-0.1,2.5-0.1,3.8c0,1.1-0.1,2.4,0.3,3.5c0.1,0.2,0.4,0.2,0.4-0.1
					c0-1.2-0.2-2.4-0.2-3.7c0-1.2,0.1-2.4,0-3.5C51.4,66,51.1,66,51,66.2L51,66.2z"/>
			</g>
		</g>
		<g>
			<g>
				<path fill="#1F1E5B" d="M53.8,69.3c-1.7-0.1-3.4,0-5.1,0.1c-0.3,0-0.4,0.5-0.1,0.5c1.7,0,3.5,0.2,5.2-0.2
					C54.1,69.6,54.1,69.3,53.8,69.3L53.8,69.3z"/>
			</g>
		</g>
		<g>
			<g>
				<path fill="#1F1E5B" d="M43.7,66.3c-0.5,2.3-0.4,4.7-0.1,7c0.1-0.1,0.2-0.2,0.3-0.3c-2,0.1-4-0.1-6,0c0.1,0.1,0.2,0.2,0.3,0.2
					c-0.2-2.4-0.1-4.7-0.3-7.1c-0.1,0.1-0.2,0.2-0.3,0.3c2,0.2,4.1,0.2,6.1,0.1c0.4,0,0.4-0.6,0.1-0.6c-2,0.1-4.1,0.1-6.1-0.1
					c-0.2,0-0.3,0.1-0.3,0.3c0.2,2.4,0.1,4.7,0.3,7.1c0,0.2,0.2,0.2,0.3,0.2c1.9-0.1,3.9,0,5.8,0c0.2,0,0.3-0.1,0.3-0.3
					c-0.3-2.3-0.3-4.5,0-6.8C44.2,66.2,43.8,66.1,43.7,66.3L43.7,66.3z"/>
			</g>
		</g>
		<g>
			<g>
				<path fill="#1F1E5B" d="M40.6,66.3c-0.1,2.3,0.1,4.5,0.1,6.8c0,0.4,0.5,0.4,0.5,0.1c0-2.3,0-4.6-0.2-6.9
					C41,66.1,40.6,66.1,40.6,66.3L40.6,66.3z"/>
			</g>
		</g>
		<g>
			<g>
				<path fill="#1F1E5B" d="M43.7,69.4c-0.9-0.1-1.9,0-2.8,0c-1,0-2-0.2-2.9-0.1c-0.2,0-0.2,0.4,0,0.4c1.7,0.4,4,0.4,5.8,0.1
					C44,69.8,43.9,69.4,43.7,69.4L43.7,69.4z"/>
			</g>
		</g>
		<g>
			<g>
				<path fill="#1F1E5B" d="M33.9,66.3c-0.5,2.3-0.4,4.8-0.3,7.1c0.1-0.1,0.1-0.2,0.2-0.3c-1,0.1-2.1,0.1-3.1,0.1
					c-0.8,0-2.1,0.3-2.2-0.7c-0.2-2.1,0.1-4.2,0.2-6.3c-0.1,0.1-0.2,0.2-0.3,0.3c1.9,0,3.9,0,5.8,0c0.4,0,0.4-0.6,0.1-0.6
					c-1.9,0-3.9,0-5.8,0c-0.1,0-0.3,0.1-0.3,0.3c0,2.4-0.4,4.8-0.1,7.2c0,0.1,0.1,0.2,0.2,0.2c1.9,0.2,3.7,0.2,5.6,0
					c0.2,0,0.2-0.2,0.2-0.3c-0.1-2.4-0.1-4.6,0.2-7C34.3,66,33.9,66,33.9,66.3L33.9,66.3z"/>
			</g>
		</g>
		<g>
			<g>
				<path fill="#1F1E5B" d="M30.8,66.4c-0.2,1.2-0.2,2.5-0.3,3.7c-0.1,1.1-0.1,2.3,0.4,3.3c0.1,0.3,0.6,0.1,0.5-0.2
					c-0.6-2.3,0.1-4.6-0.1-6.9C31.2,66.2,30.9,66.2,30.8,66.4L30.8,66.4z"/>
			</g>
		</g>
		<g>
			<g>
				<path fill="#1F1E5B" d="M33.8,69.3c-1.8,0-3.6,0.1-5.5-0.1c-0.4,0-0.4,0.5-0.1,0.6c1.8,0.2,3.7,0.2,5.5-0.1
					C34.1,69.7,34.1,69.3,33.8,69.3L33.8,69.3z"/>
			</g>
		</g>
		<g>
			<g>
				<path fill="#1F1E5B" d="M84.4,66.4c0,1.5,0,3,0,4.5c0,0.7,0,1.5,0,2.2c0,0.3-1.9,0.2-2.2,0.2c-0.7,0-1.5,0-2.2,0
					c-0.8,0-0.6-1-0.6-1.7c-0.1-1.8,0-3.5-0.1-5.3c-0.1,0.1-0.2,0.2-0.3,0.3c1.9,0.1,3.8,0,5.7,0c0.4,0,0.4-0.6,0.1-0.6
					c-1.9,0-3.8,0-5.7,0c-0.1,0-0.3,0.1-0.3,0.2c0.1,2.4,0,4.9,0.2,7.3c0,0.1,0.1,0.2,0.2,0.2c1.8,0,3.7,0.1,5.5-0.1
					c0.1,0,0.2-0.1,0.2-0.2c-0.1-2.4,0.1-4.8-0.1-7.2C84.9,66.1,84.4,66.1,84.4,66.4L84.4,66.4z"/>
			</g>
		</g>
		<g>
			<g>
				<path fill="#1F1E5B" d="M81.7,66.3c-0.2,1.2-0.1,2.5-0.1,3.8c0,1.1-0.1,2.4,0.3,3.5c0.1,0.2,0.4,0.2,0.4-0.1
					c0-1.2-0.2-2.4-0.2-3.7c0-1.2,0.1-2.4,0-3.5C82.1,66.1,81.8,66.1,81.7,66.3L81.7,66.3z"/>
			</g>
		</g>
		<g>
			<g>
				<path fill="#1F1E5B" d="M84.5,69.4c-1.7-0.1-3.4,0-5.1,0.1c-0.3,0-0.4,0.5-0.1,0.5c1.7,0,3.5,0.2,5.2-0.2
					C84.7,69.7,84.8,69.4,84.5,69.4L84.5,69.4z"/>
			</g>
		</g>
		<g>
			<g>
				<path fill="#1F1E5B" d="M74.4,66.5c-0.5,2.3-0.4,4.7-0.1,7c0.1-0.1,0.2-0.2,0.3-0.3c-2,0.1-4-0.1-6,0c0.1,0.1,0.2,0.2,0.3,0.2
					c-0.2-2.4-0.1-4.7-0.3-7.1c-0.1,0.1-0.2,0.2-0.3,0.3c2,0.2,4.1,0.2,6.1,0.1c0.4,0,0.4-0.6,0.1-0.6c-2,0.1-4.1,0.1-6.1-0.1
					c-0.2,0-0.3,0.1-0.3,0.3c0.2,2.4,0.1,4.7,0.3,7.1c0,0.2,0.2,0.2,0.3,0.2c1.9-0.1,3.9,0,5.8,0c0.2,0,0.3-0.1,0.3-0.3
					c-0.3-2.3-0.4-4.5,0-6.8C74.9,66.3,74.5,66.2,74.4,66.5L74.4,66.5z"/>
			</g>
		</g>
		<g>
			<g>
				<path fill="#1F1E5B" d="M71.3,66.5c-0.1,2.3,0.1,4.5,0.1,6.8c0,0.4,0.5,0.4,0.5,0.1c0-2.3,0-4.6-0.2-6.9
					C71.7,66.2,71.3,66.2,71.3,66.5L71.3,66.5z"/>
			</g>
		</g>
		<g>
			<g>
				<path fill="#1F1E5B" d="M74.4,69.5c-0.9-0.1-1.9,0-2.8,0c-1,0-2-0.2-2.9-0.1c-0.2,0-0.2,0.4,0,0.4c1.7,0.4,4,0.4,5.8,0.1
					C74.7,69.9,74.6,69.5,74.4,69.5L74.4,69.5z"/>
			</g>
		</g>
		<g>
			<g>
				<path fill="#1F1E5B" d="M64.6,66.4c-0.5,2.3-0.4,4.8-0.3,7.1c0.1-0.1,0.1-0.2,0.2-0.3c-1,0.1-2.1,0.1-3.1,0.1
					c-0.8,0-2.1,0.3-2.2-0.7c-0.2-2.1,0.1-4.2,0.2-6.3c-0.1,0.1-0.2,0.2-0.3,0.3c1.9,0,3.9,0,5.8,0c0.4,0,0.4-0.6,0.1-0.6
					c-1.9,0-3.9,0-5.8,0c-0.1,0-0.3,0.1-0.3,0.3c0,2.4-0.4,4.8,0,7.2c0,0.1,0.1,0.2,0.2,0.2c1.9,0.2,3.7,0.2,5.6,0
					c0.2,0,0.2-0.2,0.2-0.3c-0.1-2.4-0.1-4.6,0.2-7C65,66.1,64.6,66.1,64.6,66.4L64.6,66.4z"/>
			</g>
		</g>
		<g>
			<g>
				<path fill="#1F1E5B" d="M61.5,66.5c-0.2,1.2-0.2,2.5-0.3,3.7c-0.1,1.1-0.1,2.3,0.4,3.3c0.1,0.3,0.6,0.1,0.5-0.2
					c-0.6-2.3,0.1-4.6-0.1-6.9C61.9,66.3,61.6,66.3,61.5,66.5L61.5,66.5z"/>
			</g>
		</g>
		<g>
			<g>
				<path fill="#1F1E5B" d="M64.5,69.4c-1.8,0-3.6,0.1-5.5-0.1c-0.4,0-0.4,0.5-0.1,0.6c1.8,0.2,3.7,0.2,5.5-0.1
					C64.8,69.8,64.8,69.4,64.5,69.4L64.5,69.4z"/>
			</g>
		</g>
	</g>
	<g>
		<g>
			<g>
				<path fill="#1F1E5B" d="M34.3,37.6C34.3,37.8,34.3,37.7,34.3,37.6c0,0.1-0.1,0.2-0.1,0.3c-0.1,1.6-0.1,3.2-0.3,4.8
					c0,0.5-0.1,0.9-0.1,1.3c-0.1,0.8,0,0.7-0.9,0.7c-1.3,0-2.7,0-4,0c-0.4,0-0.1-3.4-0.1-3.8c0-0.6,0.1-1.3,0.1-1.9
					c0-0.4-0.1-1.2,0.3-1.2c1.8-0.1,3.6,0.2,5.3,0c0.3,0,0.2-0.5,0-0.5c-1.9-0.2-3.9-0.1-5.8,0c-0.1,0-0.2,0.1-0.2,0.3
					c-0.1,2.5-0.5,5-0.2,7.5c0,0.1,0.1,0.2,0.2,0.2c1.8,0.1,3.7,0.1,5.5,0c0.1,0,0.2-0.1,0.2-0.2c0.4-2.3,0.5-4.7,0.5-7.1
					c0-0.1-0.1-0.3-0.2-0.3c0.2,0,0.1,0.1,0.1,0C34.6,37.5,34.3,37.4,34.3,37.6L34.3,37.6z"/>
			</g>
		</g>
		<g>
			<g>
				<path fill="#1F1E5B" d="M31.1,37.6c-0.2,2.4,0,4.9-0.1,7.4c0,0.4,0.5,0.4,0.5,0.1c0.2-2.4,0.2-5,0-7.4
					C31.5,37.3,31.1,37.3,31.1,37.6L31.1,37.6z"/>
			</g>
		</g>
		<g>
			<g>
				<path fill="#1F1E5B" d="M34.3,40.4c-1.9,0.2-3.9,0-5.8,0c-0.4,0-0.4,0.5-0.1,0.5c2,0,4,0.3,5.9-0.1
					C34.7,40.8,34.6,40.4,34.3,40.4L34.3,40.4z"/>
			</g>
		</g>
		<g>
			<g>
				<path fill="#1F1E5B" d="M43.8,37.5c-0.1,2,0,3.9,0,5.9c0,0.4,0,0.9,0,1.3c0,0.4-1.6,0.2-1.8,0.2c-1.1,0-2.3-0.1-3.4-0.2
					c0.1,0.1,0.2,0.2,0.2,0.3c-0.1-2.5,0.5-5-0.1-7.5c-0.1,0.1-0.2,0.2-0.3,0.3c1.7,0.2,3.5,0,5.2-0.1c0.4,0,0.4-0.6,0.1-0.6
					c-1.7,0-3.5,0.2-5.2,0.1c-0.2,0-0.3,0.1-0.3,0.3c0.5,2.4,0,4.9,0.1,7.4c0,0.1,0.1,0.3,0.3,0.3c1.9,0.1,3.7,0.2,5.6,0.1
					c0.1,0,0.2-0.1,0.2-0.2c0.1-2.6,0.1-5.1-0.1-7.7C44.2,37.2,43.8,37.2,43.8,37.5L43.8,37.5z"/>
			</g>
		</g>
		<g>
			<g>
				<path fill="#1F1E5B" d="M41.4,37.7c-0.4,1.1-0.3,2.5-0.3,3.7c0,1.2,0,2.5,0.1,3.7c0,0.3,0.5,0.3,0.5,0c0.1-1.1,0-2.2-0.1-3.3
					c0-1.3,0.1-2.6,0.1-4C41.8,37.5,41.5,37.5,41.4,37.7L41.4,37.7z"/>
			</g>
		</g>
		<g>
			<g>
				<path fill="#1F1E5B" d="M43.7,40.4c-1,0-1.9,0.1-2.9,0.1c-0.6,0-1.4-0.1-2,0.1c-0.1,0.1-0.1,0.3,0,0.3c0.7,0.3,1.5,0.1,2.2,0.1
					c0.9,0,1.8,0,2.7-0.3C44,40.8,44,40.4,43.7,40.4L43.7,40.4z"/>
			</g>
		</g>
		<g>
			<g>
				<path fill="#1F1E5B" d="M53.3,40.3c-1,0-1.9,0.1-2.9,0.1c-0.6,0-1.4-0.1-2,0.1c-0.1,0.1-0.1,0.3,0,0.3c0.7,0.3,1.5,0.1,2.2,0.1
					c0.9,0,1.8,0,2.7-0.3C53.7,40.6,53.6,40.3,53.3,40.3L53.3,40.3z"/>
			</g>
		</g>
		<g>
			<g>
				<path fill="#1F1E5B" d="M48.4,37.7c-0.5,2.4-0.2,4.8-0.4,7.3c0,0.1,0.1,0.3,0.2,0.3c1.8,0,3.6,0.2,5.4,0.1
					c0.1,0,0.2-0.1,0.2-0.2c0.1-2.4,0.1-4.9,0.5-7.3c0-0.1-0.1-0.3-0.3-0.3c-1.7,0-3.4-0.2-5.1,0c-0.4,0-0.3,0.6,0.1,0.6
					c1.6-0.2,3.3,0.1,4.9,0c-0.1-0.1-0.2-0.2-0.3-0.3c-0.3,1.8-0.4,3.7-0.5,5.6c0,0.4,0,0.9,0,1.3c0,0.3-1.7,0.2-1.9,0.2
					c-1,0-2-0.1-3.1-0.1c0.1,0.1,0.2,0.2,0.2,0.3c0.2-2.4,0.1-4.9,0.4-7.3C48.9,37.5,48.4,37.4,48.4,37.7L48.4,37.7z"/>
			</g>
		</g>
		<g>
			<g>
				<path fill="#1F1E5B" d="M51.3,37.7c-0.7,0.6-0.6,2.5-0.6,3.4c-0.1,1.3-0.3,2.7-0.1,4c0,0.3,0.5,0.3,0.5,0c0.1-1.3,0-2.6,0.1-3.9
					c0-0.7,0.1-1.4,0.2-2.1c0-0.4,0.2-0.9,0-1.3C51.4,37.6,51.4,37.6,51.3,37.7L51.3,37.7z"/>
			</g>
		</g>
		<g>
			<g>
				<path fill="#1F1E5B" d="M65,37.7C65,37.9,64.9,37.8,65,37.7c0,0.1-0.1,0.2-0.1,0.3c-0.1,1.6-0.1,3.2-0.3,4.8
					c0,0.5-0.1,0.9-0.1,1.3c-0.1,0.8,0,0.7-0.9,0.7c-1.3,0-2.7,0-4,0c-0.4,0-0.1-3.4-0.1-3.8c0-0.6,0.1-1.3,0.1-1.9
					c0-0.4-0.1-1.2,0.3-1.2c1.8-0.1,3.6,0.2,5.3,0c0.3,0,0.2-0.5,0-0.5c-1.9-0.2-3.9-0.1-5.8,0c-0.1,0-0.2,0.1-0.2,0.3
					c-0.1,2.5-0.5,5-0.2,7.5c0,0.1,0.1,0.2,0.3,0.2c1.8,0.1,3.7,0.1,5.5,0c0.1,0,0.2-0.1,0.2-0.2c0.4-2.3,0.5-4.7,0.5-7.1
					c0-0.1-0.1-0.3-0.2-0.3c0.2,0,0.1,0.1,0.1,0C65.3,37.6,65,37.5,65,37.7L65,37.7z"/>
			</g>
		</g>
		<g>
			<g>
				<path fill="#1F1E5B" d="M61.8,37.7c-0.2,2.4,0,4.9-0.1,7.4c0,0.4,0.5,0.4,0.5,0.1c0.2-2.4,0.2-5,0-7.4
					C62.2,37.4,61.8,37.5,61.8,37.7L61.8,37.7z"/>
			</g>
		</g>
		<g>
			<g>
				<path fill="#1F1E5B" d="M65,40.5c-1.9,0.2-3.9,0-5.8,0c-0.3,0-0.4,0.5-0.1,0.5c2,0,4,0.3,5.9,0C65.4,40.9,65.3,40.5,65,40.5
					L65,40.5z"/>
			</g>
		</g>
		<g>
			<g>
				<path fill="#1F1E5B" d="M74.5,37.6c-0.1,2,0,3.9,0,5.9c0,0.4,0,0.9,0,1.3c0,0.4-1.6,0.2-1.8,0.2c-1.1,0-2.3-0.1-3.4-0.2
					c0.1,0.1,0.2,0.2,0.3,0.3c-0.1-2.5,0.5-5-0.1-7.5c-0.1,0.1-0.2,0.2-0.3,0.3c1.7,0.2,3.5,0,5.2-0.1c0.4,0,0.4-0.6,0.1-0.6
					c-1.7,0-3.5,0.2-5.2,0.1c-0.2,0-0.3,0.1-0.3,0.3c0.5,2.4,0,4.9,0.1,7.4c0,0.1,0.1,0.3,0.3,0.3c1.9,0.1,3.7,0.2,5.6,0.1
					c0.1,0,0.2-0.1,0.2-0.2c0.1-2.6,0.1-5.1-0.1-7.7C74.9,37.3,74.5,37.3,74.5,37.6L74.5,37.6z"/>
			</g>
		</g>
		<g>
			<g>
				<path fill="#1F1E5B" d="M72.1,37.8c-0.4,1.1-0.3,2.5-0.3,3.7c0,1.2,0,2.5,0.1,3.7c0,0.3,0.5,0.3,0.5,0c0.1-1.1,0-2.2-0.1-3.3
					c0-1.3,0.1-2.6,0.1-4C72.5,37.7,72.2,37.6,72.1,37.8L72.1,37.8z"/>
			</g>
		</g>
		<g>
			<g>
				<path fill="#1F1E5B" d="M74.4,40.5c-1,0-1.9,0.1-2.9,0.1c-0.6,0-1.4-0.1-2,0.1c-0.1,0.1-0.1,0.3,0,0.3c0.7,0.3,1.5,0.1,2.2,0.1
					c0.9,0,1.8,0,2.7-0.3C74.7,40.9,74.7,40.5,74.4,40.5L74.4,40.5z"/>
			</g>
		</g>
		<g>
			<g>
				<path fill="#1F1E5B" d="M84,40.4c-1,0-1.9,0.1-2.9,0.1c-0.6,0-1.4-0.1-2,0.1c-0.1,0.1-0.1,0.3,0,0.3c0.7,0.3,1.5,0.1,2.2,0.1
					c0.9,0,1.8,0,2.7-0.3C84.4,40.8,84.3,40.4,84,40.4L84,40.4z"/>
			</g>
		</g>
		<g>
			<g>
				<path fill="#1F1E5B" d="M79.1,37.8c-0.5,2.4-0.2,4.8-0.4,7.3c0,0.1,0.1,0.3,0.2,0.3c1.8,0,3.6,0.2,5.4,0.1
					c0.1,0,0.2-0.1,0.2-0.2c0.1-2.4,0.1-4.9,0.5-7.3c0-0.1-0.1-0.3-0.3-0.3c-1.7,0-3.4-0.2-5.1,0c-0.4,0-0.3,0.6,0.1,0.6
					c1.6-0.2,3.3,0.1,4.9,0c-0.1-0.1-0.2-0.2-0.3-0.3c-0.3,1.8-0.4,3.7-0.5,5.6c0,0.4,0,0.9-0.1,1.3c0,0.3-1.7,0.2-1.9,0.2
					c-1,0-2.1-0.1-3.1-0.1c0.1,0.1,0.2,0.2,0.2,0.3c0.2-2.4,0.1-4.9,0.4-7.3C79.6,37.6,79.1,37.5,79.1,37.8L79.1,37.8z"/>
			</g>
		</g>
		<g>
			<g>
				<path fill="#1F1E5B" d="M82,37.8c-0.7,0.6-0.6,2.5-0.6,3.4c-0.1,1.3-0.3,2.7-0.1,4c0,0.3,0.5,0.3,0.5,0c0.1-1.3,0-2.6,0.1-4
					c0-0.7,0.1-1.4,0.2-2.1c0-0.4,0.2-0.9,0-1.3C82.1,37.8,82.1,37.7,82,37.8L82,37.8z"/>
			</g>
		</g>
	</g>
	<g>
		<path fill="#1F1E5B" d="M8.2,78c-0.3,0-0.4-0.1-0.4-0.4c0-0.3,0.1-0.6,0.2-0.9c0.2-0.5,0.4-1,0.5-1.5c-0.2,0-0.4,0-0.6-0.1
			c0,0.9,0.9,2.6,0.1,3.2c-0.3,0.2,0,0.6,0.3,0.5c1.3-0.5,0.2-2.7,0.2-3.6c0-0.4-0.5-0.4-0.6-0.1c-0.1,0.6-1.6,4.1,0.3,3.4
			C8.5,78.4,8.5,78,8.2,78L8.2,78z"/>
	</g>
	<g>
		<path fill="#1F1E5B" d="M8.4,78.9c0.2,0.1,0.4,0.2,0.5,0.4c0,0.2-0.1,0.4-0.2,0.5c-0.1,0.1-0.2,0.1-0.3,0.1
			c-0.1,0-0.3-0.1-0.4-0.1c-0.3-0.2-0.5-0.4-0.5-0.6c0-0.1,0-0.2,0.1-0.2c0.2-0.2,0.4-0.1,0.5-0.4c0-0.1,0-0.2-0.1-0.2
			c-0.2-0.2-0.7,0-0.9,0.2C7,78.8,6.9,79,6.9,79.2c0.1,0.5,0.5,0.9,0.9,1.1c0.5,0.2,1,0.2,1.3-0.3c0.5-0.6,0.2-1.7-0.7-1.7
			C8.3,78.4,8.2,78.8,8.4,78.9L8.4,78.9z"/>
	</g>
	<g>
		<path fill="#1F1E5B" d="M8.1,85c-0.5-0.3-1-0.5-1.2-1.1c-0.1-0.4,0.2-1,0.3-1.4C7.6,81.8,8,81.1,8,80.2c0-0.4-0.6-0.4-0.6-0.1
			c0,1.2-0.8,2.1-1,3.2c-0.2,1,0.6,1.7,1.5,2C8.1,85.5,8.3,85.1,8.1,85L8.1,85z"/>
	</g>
	<g>
		<path fill="#1F1E5B" d="M8.3,80.3c-0.2,1.8,2.4,3.5,0.2,4.8c-0.3,0.2-0.1,0.7,0.2,0.5c0.9-0.4,1.4-1.1,1.2-2.2
			c-0.1-0.5-0.3-1-0.5-1.4c-0.3-0.6-0.5-1.2-0.8-1.8C8.5,80.1,8.3,80.2,8.3,80.3L8.3,80.3z"/>
	</g>
	<g>
		<path fill="#1F1E5B" d="M6.7,87.9c0.7,0.5,1.8,0.4,2.6,0c0.9-0.5,0.8-1.5,0.3-2.3c-1.4-2-4.5,0.8-2.7,2.4c0.2,0.2,0.5-0.1,0.4-0.3
			c-0.1-0.4-0.3-0.6-0.3-1.1c0-0.3,0.3-0.6,0.5-0.8c0.6-0.5,1.4-0.3,1.8,0.3c0.4,0.6,0.1,1.1-0.5,1.4c-0.6,0.2-1.2,0.1-1.8-0.1
			C6.7,87.4,6.5,87.8,6.7,87.9L6.7,87.9z"/>
	</g>
	<g>
		<path fill="#1F1E5B" d="M6.2,89.2c-0.5,0.4-0.8,0.1-0.9-0.5c-0.2-0.9,1.2-1,1.5-0.3c0.7,1.4-0.1,2.9-0.3,4.3
			c0,0.2,0.3,0.4,0.4,0.2c0.7-0.8,0.7-2.6,0.6-3.6c-0.1-1.2-0.7-2.2-2-1.9c-0.9,0.2-1,1.2-0.7,1.9c0.3,0.7,1.4,1,1.7,0.1
			C6.6,89.3,6.4,89.1,6.2,89.2L6.2,89.2z"/>
	</g>
	<g>
		<path fill="#1F1E5B" d="M9.3,92.9c-0.1-1.1-0.5-2-0.5-3.1c0-0.6,0.3-1.3,0.8-1.6c1.3-0.7,1.1,2.5,0,1c-0.1-0.2-0.5,0-0.4,0.2
			c0.3,0.9,1.3,1.2,1.8,0.3c0.4-0.7,0.1-2.1-0.9-2.2c-2.5-0.2-2.1,4.2-1.2,5.5C9.1,93.2,9.3,93.1,9.3,92.9L9.3,92.9z"/>
	</g>
	<g>
		<path fill="#1F1E5B" d="M5.8,93.1c1.3,0.5,2.8,0.3,4.1,0.1c-0.1-0.1-0.2-0.2-0.3-0.2c0.1,1.8,0,3.6,0,5.4c0.1-0.1,0.2-0.2,0.3-0.3
			c-1.5,0-3-0.1-4.6-0.2c0.1,0.1,0.2,0.2,0.3,0.3c0.3-1.7,0.2-3.4,0.2-5.1c0-0.4-0.6-0.4-0.6-0.1c-0.1,1.7,0.1,3.4-0.2,5.1
			c0,0.2,0.1,0.3,0.3,0.3c1.5,0.2,3,0.3,4.6,0.2c0.1,0,0.3-0.1,0.3-0.3c0-1.9,0.1-3.7-0.1-5.6c0-0.2-0.2-0.3-0.3-0.2
			C8.6,92.8,7.3,93,6,92.6C5.7,92.5,5.5,93,5.8,93.1L5.8,93.1z"/>
	</g>
	<g>
		<path fill="#1F1E5B" d="M5.5,94c-0.5,0-0.9,0-1.4,0c-0.2,0-0.3,0.1-0.3,0.3c-0.1,0.5-0.2,0.9-0.2,1.4c0.1-0.1,0.2-0.2,0.3-0.3
			c-0.6,0-1.1,0-1.7,0c-0.2,0-0.3,0.1-0.3,0.3c0,0.4,0,0.8,0,1.2c0.1-0.1,0.2-0.2,0.3-0.3c-0.6,0-1.1,0-1.7,0
			c-0.1,0-0.3,0.1-0.3,0.3c0,0.5,0,1,0,1.5c0,0.4,0.6,0.4,0.6,0.1c0-0.5,0-1,0-1.5c-0.1,0.1-0.2,0.2-0.3,0.3c0.6,0,1.1,0,1.7,0
			c0.2,0,0.3-0.1,0.3-0.3c0-0.4,0-0.8,0-1.2c-0.1,0.1-0.2,0.2-0.3,0.3c0.6,0,1.1,0,1.7,0c0.2,0,0.3-0.1,0.3-0.3
			c0-0.4,0.1-0.8,0.2-1.2c-0.1,0.1-0.2,0.2-0.3,0.3c0.5,0,1,0,1.5,0C5.8,94.5,5.8,94.1,5.5,94L5.5,94z"/>
	</g>
	<g>
		<path fill="#1F1E5B" d="M10.3,93.8c1.7,0.9,4.1,0.5,5.9,0.3c2.4-0.3,4.8-0.8,7.3-0.4c0.4,0.1,0.4-0.5,0.1-0.6
			c-2.1-0.4-4.3,0-6.4,0.3c-2.4,0.3-4.4,0.4-6.8,0C10.1,93.3,10.1,93.7,10.3,93.8L10.3,93.8z"/>
	</g>
	<g>
		<path fill="#1F1E5B" d="M9.6,83.2c4.7-0.4,8.8-3.2,13.2-4.5c0.3-0.1,0.2-0.6-0.1-0.5c-4.5,1.4-8.6,3.7-13.2,4.6
			C9.2,82.8,9.3,83.2,9.6,83.2L9.6,83.2z"/>
	</g>
	<g>
		<path fill="#1F1E5B" d="M9.9,84.4c2.3-0.2,4.6-1.2,6.8-2c1.2-0.5,2.3-1,3.4-1.4c1-0.4,2.2-0.7,3.1-1.3c0.3-0.2,0.1-0.6-0.2-0.5
			c-1.9,0.8-3.9,1.5-5.8,2.3c-2.4,1-4.8,1.8-7.4,2.4C9.5,84,9.6,84.4,9.9,84.4L9.9,84.4z"/>
	</g>
	<g>
		<path fill="#1F1E5B" d="M10.5,93.7c4.2-1.2,8.3-2.8,12.4-4.6c0.3-0.1,0.1-0.6-0.2-0.5c-4,1.7-8.1,3.2-12.3,4.6
			C10,93.3,10.2,93.7,10.5,93.7L10.5,93.7z"/>
	</g>
	<g>
		<path fill="#1F1E5B" d="M12.4,94.1c3.7-0.9,7.4-2.3,10.9-3.7c0.3-0.1,0.1-0.6-0.2-0.5c-3.5,1.4-7.2,2.5-10.8,3.8
			C12,93.7,12.1,94.1,12.4,94.1L12.4,94.1z"/>
	</g>
	<g>
		<path fill="#1F1E5B" d="M19.7,80.9c-0.7,0.3-0.6,1.5-0.2,1.9c0.6,0.6,1.7,0.4,2.2-0.3c0.4-0.5,0.3-1.3-0.1-1.7
			c-0.5-0.6-1.4-0.5-2,0c-0.2,0.2,0,0.6,0.3,0.5c0.4-0.2,0.8-0.5,1.2-0.1c0.3,0.2,0.3,0.7,0.2,1c-0.2,0.4-1,0.6-1.3,0.3
			c-0.5-0.3-0.1-1,0-1.4C20,80.9,19.8,80.8,19.7,80.9L19.7,80.9z"/>
	</g>
	<g>
		<path fill="#1F1E5B" d="M20.2,83.2c0.2,0.6-0.2,1.4-0.4,2c-0.2,0.6-0.4,1.3-0.4,2c-0.1,0.8,0.2,1.9,1.1,2.1
			c0.7,0.2,1.3-0.7,1.5-1.3c0.4-1.7-0.8-3.2-1.1-4.8c-0.1-0.4-0.6-0.3-0.6,0.1c0.1,1.3,0.9,2.5,1.1,3.8c0.1,0.5-0.2,2.1-1.1,1.5
			c-0.8-0.5-0.3-2.3-0.1-3c0.2-0.8,0.7-1.8,0.3-2.5C20.5,82.9,20.2,83,20.2,83.2L20.2,83.2z"/>
	</g>
	<g>
		<path fill="#1F1E5B" d="M16,82.6c-0.7,0.3-0.6,1.5-0.2,1.9c0.6,0.6,1.7,0.4,2.2-0.3c0.4-0.5,0.3-1.3-0.1-1.7c-0.5-0.6-1.4-0.5-2,0
			c-0.2,0.2,0,0.6,0.3,0.5c0.4-0.2,0.8-0.5,1.2-0.1c0.3,0.2,0.3,0.7,0.2,1c-0.2,0.4-1,0.5-1.3,0.3c-0.5-0.3-0.1-1,0-1.4
			C16.2,82.6,16.1,82.5,16,82.6L16,82.6z"/>
	</g>
	<g>
		<path fill="#1F1E5B" d="M16.5,84.9c0.2,0.6-0.2,1.4-0.4,2c-0.2,0.6-0.4,1.3-0.4,2c-0.1,0.8,0.2,1.9,1.1,2.1
			c0.7,0.2,1.3-0.7,1.5-1.3c0.4-1.7-0.8-3.2-1.1-4.8c-0.1-0.4-0.6-0.3-0.6,0.1c0.1,1.3,0.9,2.5,1.1,3.8c0.1,0.5-0.2,2.1-1.1,1.5
			c-0.8-0.5-0.3-2.3-0.1-3c0.2-0.8,0.7-1.8,0.3-2.5C16.8,84.6,16.4,84.6,16.5,84.9L16.5,84.9z"/>
	</g>
	<g>
		<path fill="#1F1E5B" d="M12,84c-0.7,0.3-0.6,1.5-0.2,1.9c0.6,0.6,1.7,0.4,2.2-0.3c0.4-0.5,0.3-1.3-0.1-1.7c-0.5-0.6-1.4-0.5-2,0
			c-0.2,0.2,0,0.6,0.3,0.5c0.4-0.2,0.8-0.5,1.2-0.1c0.3,0.2,0.3,0.7,0.2,1c-0.2,0.4-1,0.6-1.3,0.3c-0.5-0.3-0.1-1,0-1.4
			C12.2,84,12.1,83.9,12,84L12,84z"/>
	</g>
	<g>
		<path fill="#1F1E5B" d="M12.5,86.3c0.2,0.6-0.2,1.4-0.4,2c-0.2,0.6-0.4,1.3-0.4,2c-0.1,0.8,0.2,1.9,1.1,2.1
			c0.7,0.2,1.3-0.7,1.5-1.3c0.4-1.7-0.8-3.2-1.1-4.8c-0.1-0.4-0.6-0.3-0.6,0.1c0.1,1.3,0.9,2.5,1.1,3.8c0.1,0.5-0.2,2.1-1.1,1.5
			c-0.8-0.5-0.3-2.3-0.1-3c0.2-0.8,0.7-1.8,0.3-2.5C12.8,86,12.4,86.1,12.5,86.3L12.5,86.3z"/>
	</g>
	<g>
		<g>
			<path fill="#1F1E5B" d="M75.5,79.9c1.2-0.4,1.6-0.1,1.2,1c-0.4,0.4-1,0.3-1.4,0c-0.7-0.4-0.6-1.5-0.4-2.1
				c0.3-0.9,1.3-1.2,2.1-0.7c0.5,0.4,0.8,1.2,0.9,1.8c0.4,1.6-0.1,3.8,2.2,3.9c0.3,0,0.5-0.5,0.1-0.6c-0.4-0.1-0.7-0.4-0.8-0.8
				c0.8-0.7,1.3-0.7,1.6,0.1c0.5,1-0.2,2.3-1.4,1.9c-1.6-0.5-2-2.3-2.1-3.8c0-0.4-0.6-0.4-0.6-0.1c0,1.7,0.5,3.5,2.2,4.3
				c1.4,0.7,2.6-0.2,2.6-1.7c0.1-1.3-1.1-2.4-2.4-1.8c-1.2,0.6-0.3,2.1,0.7,2.4c0-0.2,0.1-0.4,0.1-0.6c-1.7-0.1-1.5-1.7-1.6-3
				c-0.1-0.8-0.4-1.9-1.1-2.5c-1.4-1.2-3.1,0-3.3,1.6c-0.3,1.7,1.4,2.9,2.9,1.9c1.3-0.9-0.5-3-1.8-1.7
				C75.1,79.8,75.3,80.1,75.5,79.9L75.5,79.9z"/>
		</g>
	</g>
	<g>
		<g>
			<path fill="#1F1E5B" d="M68,80.3C68,80.3,68,80.2,68,80.3c0.2-0.2,0.2-0.3,0.1-0.4c-0.7-1.1-2.7,0.8-1.7,1.9
				c1.1,1.1,3.1,0.1,3.4-1.2c0.5-2.1-1.8-3.3-3.5-2.4c-1,0.5-1.5,1.6-1.7,2.6c-0.2,0.9-0.6,3.7-2.1,2.8c0,0.2-0.1,0.4-0.1,0.5
				c1-0.2,1.5-1.5,0.6-2.2c-1.2-0.9-2.2,0.9-2.3,1.9c-0.1,1.7,1.7,2,2.9,1.5c0.8-0.3,1.4-1,1.8-1.8c0.5-0.9,0.5-2.2,1.3-2.9
				c0.3-0.3-0.1-0.7-0.4-0.5c-1,0.9-1,2.4-1.8,3.5c-0.6,0.8-1.6,1.5-2.7,1.2c-1-0.3-0.6-1.5-0.3-2.1c0.8-1.3,1.9,0.5,0.7,0.7
				c-0.2,0-0.4,0.4-0.1,0.5c1.8,1.1,2.7-1.1,2.9-2.5c0.3-1.6,1.9-4.5,3.8-2.5c0.8,0.8,0.4,1.9-0.5,2.4c-0.2,0.1-0.5,0.2-0.7,0.2
				c-1.6,0.2,0-1.6,0-1.5c0-0.1,0-0.2,0-0.4c0,0-0.1,0.1-0.1,0.1C67.4,80.1,67.7,80.5,68,80.3L68,80.3z"/>
		</g>
	</g>
	<g>
		<g>
			<path fill="#1F1E5B" d="M73.9,78.3C73.9,78.3,73.9,78.3,73.9,78.3c-0.5,0.4,0.6,0.8,0.4,0.2c-0.3-1.3-1.5-2.1-2.8-1.9
				c-1.3,0.2-2.2,2-2.1,3.2c0.2,1.3,1.6,2,2.8,1.8c1.5-0.1,2.4-1.7,2.2-3.1c-0.1-0.4-0.6-0.3-0.6,0.1c0.1,1.1-0.4,2-1.5,2.3
				c-1,0.3-2.1-0.3-2.3-1.3c-0.2-0.8,0.5-1.8,1.1-2.3c1-0.8,2.3,0.1,2.6,1.2c0.1-0.1,0.2-0.2,0.2-0.3C74,78.2,73.9,78.2,73.9,78.3
				L73.9,78.3z"/>
		</g>
	</g>
	<g>
		<g>
			<path fill="#1F1E5B" d="M63.6,85.2c-0.1,0.7-0.1,1.4,0,2.2c0.1-0.1,0.2-0.2,0.2-0.3c-0.8,0.2-1.6,0.1-2.3,0.2
				c0.1,0.1,0.2,0.2,0.3,0.2c-0.2-0.8-0.1-1.5,0-2.3c0-0.3-0.5-0.5-0.6-0.1c-0.2,0.8-0.2,1.7,0,2.6c0,0.1,0.2,0.3,0.3,0.2
				c0.8-0.2,1.6-0.1,2.3-0.3c0.2,0,0.3-0.2,0.2-0.3c-0.1-0.7,0-1.4-0.1-2.1C64.1,84.9,63.7,84.9,63.6,85.2L63.6,85.2z"/>
		</g>
	</g>
	<g>
		<g>
			<path fill="#1F1E5B" d="M80.9,84.5c-0.1,0.9,0.1,1.8,0.2,2.7c0.1-0.1,0.2-0.2,0.2-0.3c-0.7,0.2-1.5,0.1-2.2-0.1
				c0.1,0.1,0.2,0.2,0.3,0.2c0-0.8,0-1.6,0-2.5c0-0.4-0.6-0.4-0.6-0.1c0,0.9-0.1,1.7,0,2.6c0,0.1,0.1,0.2,0.3,0.2
				c0.8,0.2,1.6,0.3,2.4,0.1c0.2,0,0.2-0.2,0.2-0.3c-0.1-0.9-0.2-1.8-0.3-2.7C81.3,84.2,80.9,84.2,80.9,84.5L80.9,84.5z"/>
		</g>
	</g>
	<g>
		<g>
			<path fill="#1F1E5B" d="M80.9,95.4c-0.1,0.8,0,1.6,0,2.3c0.1-0.1,0.2-0.2,0.2-0.2c-0.7,0-1.5-0.1-2.2-0.1
				c0.1,0.1,0.2,0.2,0.3,0.2c-0.1-0.3-0.1-0.6-0.1-0.9c0-0.2,0-0.7,0.1-0.9c0.1-0.1,0.7,0,0.8,0c0.3,0,0.6,0.1,1,0
				c0.3,0,0.3-0.5,0-0.6c-0.4-0.1-0.8-0.1-1.2-0.1c-0.3,0-0.7-0.1-1,0.2c-0.5,0.5-0.4,1.7-0.2,2.3c0,0.1,0.1,0.2,0.3,0.2
				c0.8,0.1,1.5,0.2,2.3,0.1c0.1,0,0.2-0.1,0.2-0.2c0.1-0.8,0-1.6-0.1-2.4C81.3,95.2,81,95.2,80.9,95.4L80.9,95.4z"/>
		</g>
	</g>
	<g>
		<g>
			<path fill="#1F1E5B" d="M64,95.1c-0.4,0.6,0,1.4-0.4,2c0,0-0.7,0-0.8,0c-0.5,0-0.9,0.1-1.4,0.2c0.1,0.1,0.2,0.2,0.3,0.2
				c-0.1-0.7,0-1.4-0.1-2.1c-0.1,0.1-0.2,0.2-0.2,0.3c0.8-0.1,1.7,0,2.5-0.5c0.3-0.2,0.1-0.7-0.2-0.5c-0.7,0.4-1.5,0.4-2.3,0.4
				c-0.2,0-0.2,0.2-0.2,0.3c0.1,0.7,0,1.4,0.1,2.1c0,0.2,0.2,0.3,0.3,0.2c0.6-0.1,1.1-0.2,1.7-0.2c0.2,0,0.5,0.1,0.7-0.1
				c0.6-0.4,0.3-1.7,0.4-2.3C64.3,95,64.1,94.9,64,95.1L64,95.1z"/>
		</g>
	</g>
	<g>
		<g>
			<path fill="#1F1E5B" d="M80.9,87.1c-0.3,1.2-0.2,2.6-0.2,3.8c0,1.4,0,2.9,0.1,4.3c0,0.4,0.6,0.3,0.5-0.1
				c-0.1-1.4-0.1-2.8-0.1-4.2c0-1.3,0.2-2.6-0.1-3.9C81.1,87,80.9,87,80.9,87.1L80.9,87.1z"/>
		</g>
	</g>
	<g>
		<g>
			<path fill="#1F1E5B" d="M79.2,87.4c-0.2,1.2-0.1,2.6-0.2,3.8c0,1.3,0,2.6-0.1,3.8c0,0.4,0.6,0.4,0.6,0.1c0-1.3,0-2.6,0-3.8
				c0-1.3,0.2-2.6-0.1-3.9C79.5,87.2,79.2,87.2,79.2,87.4L79.2,87.4z"/>
		</g>
	</g>
	<g>
		<g>
			<path fill="#1F1E5B" d="M63.3,87.4c-0.1,0.3-0.1,0.5-0.1,0.8c0.1,0.7,0.1,1.5,0,2.2c0,1.5,0,2.9,0,4.4c0,0.3,0.5,0.4,0.5,0.1
				c0-2.5,0.2-5-0.1-7.5C63.7,87.2,63.4,87.2,63.3,87.4L63.3,87.4z"/>
		</g>
	</g>
	<g>
		<g>
			<path fill="#1F1E5B" d="M61.8,87.6c-0.4,2.4,0.1,5,0.1,7.4c0,0.3,0.5,0.4,0.5,0.1c0-2.5,0-5-0.3-7.5
				C62.1,87.4,61.8,87.4,61.8,87.6L61.8,87.6z"/>
		</g>
	</g>
	<g>
		<g>
			<path fill="#1F1E5B" d="M78.9,85.9c-1.4-2.5-5.6-3-8.1-2.9c-2.9,0.1-5,1.4-6.9,3.4c-0.3,0.3,0.1,0.8,0.4,0.5
				c1.6-1.8,3.4-2.9,5.8-3.2c1.4-0.2,2.9,0,4.3,0.3c1.7,0.3,3,1.2,4.3,2.3C78.8,86.2,79,86,78.9,85.9L78.9,85.9z"/>
		</g>
	</g>
	<g>
		<g>
			<path fill="#1F1E5B" d="M71.9,84c0-0.1,0.1-0.1,0.1-0.2c0.3-0.4-0.5-0.6-0.5-0.2c-0.1,2.6-0.2,5.2-0.3,7.8c0,1.2,0,2.4,0,3.6
				c0,0.8,0,1.8,0.3,2.6c0.1,0.3,0.7,0.1,0.5-0.2c-0.3-0.8-0.2-1.9-0.3-2.8c0-1.2,0-2.3,0-3.5c0.1-2.5,0.3-4.9,0.2-7.4
				c-0.1,0.1-0.3,0.1-0.4,0.2C71.8,83.9,71.8,84,71.9,84C71.9,84,71.9,84,71.9,84L71.9,84z"/>
		</g>
	</g>
	<g>
		<g>
			<path fill="#1F1E5B" d="M78.9,90.4c-2.7-0.1-5.4,0.2-8,0.1c-1.4-0.1-2.8-0.3-4.2-0.2c-1,0-2.1-0.1-3.1,0.2
				c-0.4,0.1-0.3,0.7,0.1,0.6c1.1-0.3,2.3-0.2,3.4-0.2c1.4,0,2.8,0.2,4.2,0.3c1.3,0.1,2.7-0.1,4-0.1c1.2,0,2.4,0,3.7,0
				C79.2,90.9,79.2,90.4,78.9,90.4L78.9,90.4z"/>
		</g>
	</g>
	<g>
		<g>
			<path fill="#1F1E5B" d="M66,84.8c-0.5,0.3-0.3,1.1-0.3,1.6c0.1,1.2-0.1,2.5,0.1,3.8c0,0.3,0.4,0.2,0.5,0c0.2-1.1,0-2.2,0-3.3
				c0-0.6,0.1-1.4-0.1-2C66.2,84.8,66.1,84.7,66,84.8L66,84.8z"/>
		</g>
	</g>
	<g>
		<g>
			<path fill="#1F1E5B" d="M68.9,83.5c0,0.9,0,1.9-0.1,2.8c0,1.3,0.1,2.5-0.1,3.8c-0.1,0.3,0.5,0.4,0.5,0.1c0.3-1.3,0.1-2.7,0.2-4
				c0-0.8,0.4-2.2-0.2-2.8C69.1,83.3,68.9,83.4,68.9,83.5L68.9,83.5z"/>
		</g>
	</g>
	<g>
		<g>
			<path fill="#1F1E5B" d="M74.1,83.7c-0.1,1.1-0.1,2.3,0,3.4c0.1,1.2-0.1,2.4,0.2,3.5c0.1,0.3,0.6,0.2,0.5-0.1
				c-0.3-2.3,0-4.6-0.3-6.9C74.5,83.5,74.1,83.5,74.1,83.7L74.1,83.7z"/>
		</g>
	</g>
	<g>
		<g>
			<path fill="#1F1E5B" d="M77.2,84.4c-0.3,0.8-0.2,1.8-0.2,2.7c0,1.2,0,2.3,0,3.5c0,0.4,0.6,0.4,0.6,0.1c0-1,0-2.1,0-3.1
				c0-1,0.1-2.1-0.2-3.1C77.3,84.4,77.2,84.3,77.2,84.4L77.2,84.4z"/>
		</g>
	</g>
	<g>
		<g>
			<path fill="#1F1E5B" d="M89.7,30.8c-0.9,1.4-0.8,3.5-0.7,5.1c0,2.2,0.2,4.4,0.3,6.6c0.2,5.6,0,11.3,0,17c0,8.9,0,17.8,0,26.8
				c0,3.9,0,7.8-0.1,11.7c0,0.6,0.9,0.7,1,0.1c0.2-7.5,0.1-14.9,0.1-22.4c0-9.6,0-19.2,0.1-28.7c0-2.8-0.1-5.6-0.2-8.5
				c-0.1-1.4-0.1-2.7-0.1-4.1c0-1,0-2.2,0.5-3.1C90.7,30.8,90.1,30.3,89.7,30.8L89.7,30.8z"/>
		</g>
	</g>
	<g>
		<g>
			<path fill="#1F1E5B" d="M49.9,83.4c-0.4-0.9,0-1.1,1-0.7c0.1,0.2,0.1,0.5,0.1,0.8c0,0.5-0.3,0.9-0.7,1.3c-1,0.9-2.3-0.5-2.8-1.3
				c-0.8-1.3-0.5-3-1.9-3.8c-0.3-0.2-0.6,0.3-0.3,0.5c1,0.6,1.2,1.8,1.4,2.8c0.2,0.7,0.6,1.4,1.2,1.9c1.1,1,2.5,0.9,3.4-0.4
				c0.4-0.7,0.4-2.6-0.7-2.6c-1-0.1-2.2,1.4-1,2C49.9,83.9,50.1,83.6,49.9,83.4L49.9,83.4z"/>
		</g>
	</g>
	<g>
		<g>
			<path fill="#1F1E5B" d="M49.7,83.5c-2.6-0.9-0.8-5.2-3.9-5.7c-1.5-0.2-2.8,1.6-2.8,3c0,1.3,1.9,2.3,2.7,1.1c0.5-0.8,0-2.7-1.2-2
				c-0.3,0.2-0.1,0.7,0.2,0.5c0.5-0.3,0.6,0.5,0.6,0.8c0,0.8-0.9,0.7-1.4,0.4c-1.1-0.8,0.2-2.5,0.9-3c0.5-0.3,1.1-0.2,1.6,0.1
				c0.9,0.6,0.9,1.7,1,2.6c0.1,1.1,0.8,2.4,2,2.7C49.9,84.1,50,83.6,49.7,83.5L49.7,83.5z"/>
		</g>
	</g>
	<g>
		<g>
			<path fill="#1F1E5B" d="M43.7,79.4c0-1.2-1.2-2.4-2.5-2.3c-1.4,0.1-2.3,1.3-2.4,2.6c-0.1,1.1,0.5,2.1,1.5,2.5
				c1.1,0.5,3.1-0.2,3.1-1.6c0-0.2-0.2-0.3-0.3-0.2c-0.7,0.7-1.1,1.6-2.4,1.3c-0.8-0.2-1.2-1-1.3-1.7c-0.1-0.9,0.4-1.8,1.2-2.2
				c0.7-0.4,1.6-0.1,2.2,0.4c0.3,0.3,0.4,0.8,0.6,1.2C43.4,79.7,43.7,79.6,43.7,79.4L43.7,79.4z"/>
		</g>
	</g>
	<g>
		<g>
			<path fill="#1F1E5B" d="M36.9,80.5c0,0,0.1,0,0.1,0.1c0.3,0.2,0.6-0.3,0.3-0.4c-1-0.5-2,0.9-1.4,1.7c0.4,0.5,1.1,0.7,1.7,0.5
				c0.9-0.3,1.3-1.1,1.4-2c0.2-1.7-2.1-3.4-3.6-2.3c-0.8,0.6-1,1.5-1.1,2.4c-0.1,1.1,0.4,3-1.2,2.9c0,0.2,0,0.4,0,0.6
				c1.1-0.3,1.4-1.6,0.4-2.2c-1.3-0.9-2.1,1-2.1,2c0.1,1.3,1.5,1.5,2.5,1.2c0.6-0.2,1-0.5,1.4-0.9c0.7-0.8,0.4-2.1,0.8-3
				c0.1-0.3-0.4-0.5-0.5-0.2c-0.6,1.4,0,2.8-1.6,3.5c-0.5,0.2-1.1,0.3-1.6,0c-0.3-0.2-0.4-0.7-0.3-1.1c0-0.3,0.1-0.6,0.3-0.8
				c1.4-0.2,1.6,0.1,0.7,0.9c-0.3,0.1-0.3,0.6,0,0.6c2.1,0.1,1.7-1.9,1.8-3.4c0-0.7,0.2-1.4,0.7-1.9c0.8-0.9,2.2,0,2.7,0.7
				c0.5,0.8,0.1,1.9-0.7,2.3c-1.6,0.9-1.6-1.7-0.6-1.2c0.1-0.2,0.1-0.3,0.2-0.5c0,0-0.1,0-0.1-0.1C36.9,80,36.7,80.4,36.9,80.5
				L36.9,80.5z"/>
		</g>
	</g>
	<g>
		<g>
			<path fill="#1F1E5B" d="M50.5,85c-0.2,0.6-0.1,1.5,0,2.1c0.1-0.1,0.2-0.2,0.3-0.3c-0.7-0.1-1.4-0.1-2.1-0.1
				c0.1,0.1,0.2,0.2,0.2,0.2c0-0.7,0.1-1.4,0-2.1c-0.1-0.3-0.4-0.2-0.5,0c-0.1,0.7-0.1,1.5,0,2.2c0,0.1,0.1,0.2,0.2,0.2
				c0.7,0,1.4,0,2.1,0.1c0.2,0,0.3-0.1,0.3-0.3c-0.2-0.7,0-1.4-0.2-2C50.8,84.9,50.6,84.8,50.5,85L50.5,85z"/>
		</g>
	</g>
	<g>
		<g>
			<path fill="#1F1E5B" d="M33.8,85c-0.3,0.5-0.2,1.2-0.2,1.8c0.1-0.1,0.2-0.2,0.4-0.2c-0.6-0.2-1.3-0.1-1.9-0.2
				c0.1,0.1,0.2,0.2,0.2,0.3c0.1-0.5-0.1-1.2,0.2-1.7c0.2-0.2-0.2-0.6-0.4-0.4c-0.5,0.5-0.3,1.3-0.4,2c0,0.2,0.1,0.3,0.3,0.3
				c0.6,0.1,1.2,0,1.8,0.2c0.2,0,0.4,0,0.4-0.2c0-0.6,0-1.2,0.1-1.7C34.2,84.9,34,84.8,33.8,85L33.8,85z"/>
		</g>
	</g>
	<g>
		<g>
			<path fill="#1F1E5B" d="M49.8,87c-0.3,3.1,0.2,6.2,0.2,9.3c0,0.3,0.5,0.4,0.5,0.1c0-3.1-0.1-6.3-0.4-9.4
				C50.2,86.8,49.8,86.8,49.8,87L49.8,87z"/>
		</g>
	</g>
	<g>
		<g>
			<path fill="#1F1E5B" d="M48.7,87.1c-0.5,1.2-0.3,2.7-0.2,3.9c0.1,1.7,0.3,3.4,0.2,5.2c0,0.3,0.5,0.4,0.5,0.1
				c0.1-1.4-0.1-2.9-0.2-4.3c-0.1-1.6,0-3.2,0-4.8C49,87,48.8,86.9,48.7,87.1L48.7,87.1z"/>
		</g>
	</g>
	<g>
		<g>
			<path fill="#1F1E5B" d="M33.5,86.9c-0.2,1.5,0.1,3.1,0.1,4.6c0,1.6-0.2,3.2-0.2,4.8c0,0.3,0.5,0.4,0.5,0.1c0-3.1,0.4-6.3-0.1-9.4
				C33.7,86.7,33.5,86.8,33.5,86.9L33.5,86.9z"/>
		</g>
	</g>
	<g>
		<g>
			<path fill="#1F1E5B" d="M32,86.6c-0.2,3.2-0.2,6.5,0.1,9.7c0,0.3,0.6,0.3,0.5-0.1c-0.3-3.2,0-6.4-0.2-9.6
				C32.4,86.4,32,86.4,32,86.6L32,86.6z"/>
		</g>
	</g>
	<g>
		<g>
			<path fill="#1F1E5B" d="M48.5,85.8c-1.4-2.8-6.1-2.6-8.6-2.4c-2.3,0.2-4.5,1.1-5.9,3c-0.2,0.3,0.3,0.7,0.5,0.3
				c1.2-1.6,2.9-2.4,4.8-2.7c1.6-0.3,3.3-0.2,4.9,0c1.7,0.2,2.8,1,4.1,2C48.4,86.1,48.5,86,48.5,85.8L48.5,85.8z"/>
		</g>
	</g>
	<g>
		<g>
			<path fill="#1F1E5B" d="M41.4,83.8C41,84.5,41,85.4,41,86.2c0,1.1-0.1,2.3-0.1,3.4c-0.1,2.7,0.1,5.4,0.2,8c0,0.3,0.5,0.4,0.5,0.1
				c0.1-2.6-0.2-5.1-0.2-7.7c0.1-2.1,0.2-4.1,0.3-6.2C41.7,83.7,41.5,83.6,41.4,83.8L41.4,83.8z"/>
		</g>
	</g>
	<g>
		<g>
			<path fill="#1F1E5B" d="M48.6,91.3c-1.3-0.3-2.7-0.1-4-0.1c-1.6,0-3.2-0.1-4.8-0.1c-1.4,0-2.7,0-4.1,0c-0.6,0-1.3,0-2,0.2
				c-0.3,0.1-0.1,0.6,0.2,0.5c0.7-0.2,1.6-0.1,2.3-0.1c1.4,0,2.7,0,4.1,0c1.5,0,3,0.1,4.5,0.1c1.2,0,2.6,0.2,3.8,0
				C48.9,91.6,48.8,91.3,48.6,91.3L48.6,91.3z"/>
		</g>
	</g>
	<g>
		<g>
			<path fill="#1F1E5B" d="M39,84.1c-0.5,1-0.4,2.2-0.3,3.3c0,1.2,0,2.4,0,3.7c0,0.3,0.4,0.4,0.5,0.1c0.3-1,0.1-2.1,0.1-3.2
				c-0.1-1.3-0.1-2.6,0.1-3.8C39.3,84,39,84,39,84.1L39,84.1z"/>
		</g>
	</g>
	<g>
		<g>
			<path fill="#1F1E5B" d="M35.9,85.2c-0.2,1-0.1,2-0.1,3c0,0.9-0.1,1.9,0,2.9c0,0.3,0.4,0.2,0.5,0c0.2-0.9,0-1.9,0-2.8
				c0-1,0.1-2.1-0.1-3.1C36.3,85,36,85,35.9,85.2L35.9,85.2z"/>
		</g>
	</g>
	<g>
		<g>
			<path fill="#1F1E5B" d="M43.7,84c-0.4,0.9-0.2,2.4-0.2,3.4c0,1.2-0.2,2.4,0,3.6c0,0.3,0.4,0.2,0.5,0c0.2-1.2,0.1-2.6,0.1-3.9
				c0-0.9,0.3-2.3-0.1-3.2C43.9,83.8,43.7,83.9,43.7,84L43.7,84z"/>
		</g>
	</g>
	<g>
		<g>
			<path fill="#1F1E5B" d="M45.9,84.4c-0.3,1-0.2,2.1-0.1,3.1c0,1.2,0,2.3,0.1,3.5c0,0.3,0.5,0.4,0.5,0.1c0-1.2,0-2.3-0.1-3.5
				c0-1,0.1-2.1-0.1-3.1C46.2,84.3,46,84.3,45.9,84.4L45.9,84.4z"/>
		</g>
	</g>
	<g>
		<g>
			<path fill="#1F1E5B" d="M21.6,31.4c0.8,1.1,0.8,3,0.9,4.3c0.2,2.3,0.2,4.7,0.2,7c-0.1,5.2-0.3,10.5-0.3,15.7
				c0,7.2,0.3,14.5,0.4,21.7c0.1,3.5,0.2,6.9,0.2,10.4c0.1,2.6-0.2,5.3,0.4,7.8c0.1,0.5,0.7,0.3,0.7-0.1c-0.1-2.7,0-5.4-0.1-8.1
				c-0.1-3.6-0.2-7.2-0.3-10.9c-0.2-7.4-0.4-14.8-0.4-22.2c0-5.2,0.3-10.4,0.3-15.6c0-2.2,0-4.5-0.3-6.7c-0.1-1.3-0.4-2.8-1.2-3.9
				C21.9,30.5,21.3,31,21.6,31.4L21.6,31.4z"/>
		</g>
	</g>
	<g>
		<g>
			<path fill="#1F1E5B" d="M90.3,30.2c-19.6-0.4-39.2-0.2-58.8,0.1c-2.2,0-4.3,0.1-6.5,0.1c-0.6,0-1.3,0-1.9,0.1
				c-0.4,0-0.8,0.2-1,0.2c-0.5,0.1-0.3,0.8,0.1,0.7c0.4,0,1.1,0.1,1.7,0.1c1.3,0,2.5-0.1,3.8-0.1c3.8-0.1,7.7-0.1,11.5-0.1
				c8.1-0.1,16.2-0.1,24.3-0.1c8.9,0,17.8,0,26.7-0.2C90.7,30.9,90.8,30.3,90.3,30.2L90.3,30.2z"/>
		</g>
	</g>
	<g>
		<g>
			<path fill="#1F1E5B" d="M89.7,33.4c-19.5-0.2-39-0.1-58.5,0.1c-2.8,0-5.8-0.1-8.6,0.3c-0.3,0-0.2,0.4,0.1,0.4
				c0.5-0.1,1.1,0,1.7,0c1.3,0,2.5-0.1,3.8-0.1c3.8-0.1,7.7-0.1,11.5-0.1c8-0.1,16-0.1,24.1-0.1c8.7,0,17.3,0,26-0.1
				C89.9,33.8,90,33.4,89.7,33.4L89.7,33.4z"/>
		</g>
	</g>
	<g>
		<g>
			<path fill="#1F1E5B" d="M75.3,3.6c0.7,0.2,0.8,0.6,0.3,1.1c-0.6,0.4-1-0.4-1.1-0.7c-0.7-1.4,1.3-1.7,2.1-1.2
				c1.5,0.8,1.1,3,1.4,4.4c0.2,0.9,0.5,1.5,1.2,2.1c0.6,0.4,1.2,0.3,1.5-0.3c0.1-0.2,0-0.4-0.2-0.4C80.2,8.4,80,8.3,80,7.9
				c0.3-0.5,0.8-0.5,1.3-0.2c0.7,0.4,0.4,1.5,0,1.9c-1.3,1.4-3.4-0.3-3.8-1.7c-0.4-1.6,0.1-3.6-1.4-4.7c-0.3-0.2-0.6,0.2-0.3,0.5
				c1,0.8,0.9,2.3,1,3.5c0.1,1,0.4,1.8,1.1,2.6c1.2,1.2,3.4,1.3,4.2-0.3c0.6-1.1-0.5-3-1.9-2.3c-1,0.5-1.3,1.9,0.1,1.9
				c-0.1-0.1-0.1-0.3-0.2-0.4c-0.6,1.1-1.6-0.9-1.7-1.2c-0.1-0.5-0.2-1.1-0.2-1.6c-0.1-1.1-0.2-2.1-1-3c-0.9-1.1-3-1.1-3.5,0.4
				c-0.4,1.1,0.8,2.5,2,2.1c1.1-0.4,0.6-2.1-0.6-1.9C75,3.2,75.1,3.6,75.3,3.6L75.3,3.6z"/>
		</g>
		<g>
			<path fill="#1F1E5B" d="M72,3.6c0-0.1,0-0.1,0-0.1c0-0.1-0.1-0.2-0.2-0.3c-1.4-0.3-1.6,2.3,0.1,2.3c1.7,0,1.4-2.1,0.7-3
				c-1-1.2-2.7-0.3-3.2,0.8C69,4,69,4.9,68.9,5.7c0,0.4,0,0.8-0.1,1.2c0,0.4-0.2,0.8-0.4,1.1c-0.3,0.6-1.6,1.7-2,0.4
				c-0.1,0.1-0.3,0.2-0.4,0.3c1.1,0.7,2.3-0.4,1.3-1.5C66.9,6.7,66,6.7,65.4,7c-0.7,0.5-0.9,1.3-0.7,2.1c0.4,2,2.8,1.8,4,0.9
				c0.8-0.6,1.4-1.5,1.7-2.4c0.4-1.2-0.4-2.8,0.7-3.8c0.3-0.3-0.1-0.7-0.4-0.4c-0.7,0.7-0.8,1.5-0.8,2.5c0,1.2-0.2,2.1-0.9,3
				c-0.8,1.1-2.7,2-3.6,0.5C65,8.8,65.2,8,65.6,7.6C66,7.2,66.7,7.4,67,7.7c0.5,0.5-0.3,0.7-0.7,0.5c-0.2-0.1-0.5,0-0.4,0.3
				c0.4,1.3,1.4,1.3,2.4,0.6c1-0.7,1.2-2,1.2-3.1c0.1-1.1,0-2.8,1.2-3.4c0.8-0.4,1.5,0.1,1.8,0.8c0.1,0.3,0.2,0.7,0.1,1
				c-0.1,0.2-0.2,0.4-0.4,0.5c-0.9,0.5-0.6-0.6-0.7-1.2C71.5,3.9,72,3.9,72,3.6L72,3.6z"/>
		</g>
		<g>
			<path fill="#1F1E5B" d="M75.6,2c0.1-1-0.9-1.8-1.8-1.9c-1.1-0.1-2.1,0.8-2.3,1.8c-0.1,0.3,0.4,0.5,0.5,0.2
				c0.3-0.8,0.7-1.3,1.6-1.4c1-0.1,1.3,0.7,1.7,1.4C75.3,2.2,75.5,2.2,75.6,2L75.6,2z"/>
		</g>
		<g>
			<path fill="#1F1E5B" d="M74.5,2.5c0-1-1.8-1.1-2-0.2c-0.1,0.3,0.3,0.5,0.4,0.2c0.2-0.2,0.3-0.3,0.6-0.4c0.3,0,0.5,0.1,0.6,0.4
				C74.2,2.7,74.5,2.7,74.5,2.5L74.5,2.5z"/>
		</g>
		<g>
			<path fill="#1F1E5B" d="M75.3,8.3c0.6-1-0.6-1.7-1.5-1.8c-1.1-0.2-2.1,0.6-2.3,1.7c-0.2,1,0.6,2,1.5,2.3c1.4,0.4,2.6-0.7,2.6-2.1
				c0-0.4-0.5-0.4-0.6-0.1c-0.1,1.1-0.9,1.9-2,1.6c-0.7-0.2-1-0.9-1-1.5c0-1.7,3.2-1.7,3-0.1C75,8.4,75.2,8.5,75.3,8.3L75.3,8.3z"/>
		</g>
		<g>
			<path fill="#1F1E5B" d="M81.3,16.6c-0.6,1.1,1,1.9,1.8,1.1c0.9-1.1,0-3-1.5-2.9c-2.1,0.1-2.1,2.9-1.2,4.3c0.6,1,1.4,1.8,2.5,2.2
				c0.8,0.3,1.5,0.3,2.1,0.9c0.3,0.3,0.5,0.6,0.6,1c0.5,1.1-0.8,1.8-1.2,0.8c-0.1,0.1-0.1,0.3-0.2,0.4c1.7-0.3,1.2-2.3-0.3-2.5
				c-1-0.2-1.6,0.6-1.9,1.5c-0.4,1.1,0.5,2.1,1.3,2.7c2.3,1.6,4.8-0.7,4.4-3.1c-0.5-3.4-4.9-2.8-6-5.6c-0.1-0.3-0.6-0.1-0.5,0.2
				c0.4,1.1,1.1,1.8,2.2,2.3c1.6,0.7,3.2,1.2,3.8,3.2c0.3,1.1-0.3,2.2-1.2,2.7c-1,0.6-2.2,0-2.9-0.7c-0.7-0.8-0.7-2.7,0.7-2.7
				c0.8,0,1.5,1.2,0.4,1.4c-0.2,0-0.3,0.2-0.2,0.4c0.3,0.9,1.2,1,1.9,0.5c1-0.7,0.1-2.2-0.5-2.9c-0.5-0.5-1.1-0.8-1.7-0.9
				c-1.1-0.3-1.8-0.8-2.6-1.7c-0.8-1-1.3-2.6-0.2-3.6c0.5-0.5,1.3-0.2,1.7,0.2c0.2,0.2,0.3,0.4,0.3,0.7c0.3,1.2-1.6,1.2-1.3,0.3
				C81.7,16.6,81.4,16.4,81.3,16.6L81.3,16.6z"/>
		</g>
		<g>
			<path fill="#1F1E5B" d="M65,16.7c-0.9,0.6-1.3,0.5-1.2-0.3c0-0.3,0.2-0.6,0.4-0.8c0.7-0.7,1.5-0.2,1.9,0.5
				c0.5,0.8,0.2,1.7-0.3,2.4c-1,1.2-2.7,1.9-4,2.7c-0.9,0.6-2.4,1.9-1.6,3.1c0.7,1,2.3,0.9,3,0c0.1-0.2,0-0.4-0.2-0.4
				c-1-0.2-1-1-0.3-1.5c1.2-0.9,2,0.8,1.7,1.8c-0.7,2.1-3.7,2.5-4.7,0.5c-0.5-1,0.1-2.5,0.7-3.3c0.6-0.8,1.6-1.1,2.4-1.5
				c1.3-0.5,2.4-1,2.9-2.3c0.1-0.3-0.4-0.5-0.5-0.2c-0.7,1.7-2.5,1.8-4,2.5c-1.3,0.6-2.1,1.9-2.3,3.3c-0.4,2.4,2.4,4.3,4.5,2.9
				c0.8-0.6,1.7-1.6,1.7-2.7c-0.1-0.9-0.8-1.9-1.8-1.9c-1.8,0.1-2.4,2.5-0.4,2.9c-0.1-0.1-0.1-0.3-0.2-0.4c-0.8,1-3,0.5-1.8-1.2
				c0.3-0.5,1-0.9,1.5-1.3c0.9-0.5,1.8-1,2.7-1.6c1.4-1,2.6-2.7,1.5-4.3c-1.1-1.5-3.4-0.6-3.1,1.3c0.3,1.9,3.2,1,2.1-0.4
				C65.2,16.1,64.9,16.4,65,16.7L65,16.7z"/>
		</g>
		<g>
			<path fill="#1F1E5B" d="M81.4,10.8c-0.1,0.7,0,1-0.7,1.1c-0.9,0.1-1.8,0.1-2.7,0c-1.6-0.1-3.2-0.1-4.8-0.2
				c-1.5-0.1-3.1-0.2-4.6-0.1c-1,0-2,0-2.9,0.5c0.1,0.1,0.3,0.2,0.4,0.3c0-0.7,0-1.3,1-1.3c0.6,0,1.1,0,1.7,0
				c1.7-0.2,3.2-0.4,4.9-0.2c1.4,0.1,2.9,0.4,4.3,0.3c0.7,0,1.4-0.3,2.1-0.2c0.6,0.1,0.9,0.2,1.5,0c0.3-0.1,0.1-0.6-0.2-0.5
				c-0.6,0.2-1.3-0.1-2,0c-1,0.1-2,0.2-3.1,0.1c-1.7-0.1-3.4-0.4-5.1-0.3c-0.8,0.1-1.7,0.2-2.5,0.3c-0.7,0.1-1.4,0-2.2,0.1
				c-1,0.1-1,1-0.9,1.8c0,0.2,0.2,0.4,0.4,0.3c0.9-0.5,2-0.4,3-0.5c1.6-0.1,3.1,0.1,4.7,0.2c1.3,0.1,2.7,0.1,4,0.2
				c1.3,0.1,2.7,0.1,4-0.2c0.1,0,0.2-0.1,0.2-0.2c0.1-0.4,0.1-0.8,0.1-1.3C81.8,10.6,81.5,10.6,81.4,10.8L81.4,10.8z"/>
		</g>
		<g>
			<path fill="#1F1E5B" d="M65.5,13.8c0,0.5,0,0.9,0,1.4c0,0.1,0.1,0.3,0.2,0.3c3.5,0.2,7.1,0.1,10.6,0.3c0.9,0,4.8,0.3,4.9-1.3
				c0.1-1.7-3.7-1.1-4.6-1c-3.7,0.2-7.3,0.2-11,0.1c-0.4,0-0.4,0.5-0.1,0.6c2.7,0.1,5.4,0.2,8.1,0.1c2.1-0.1,4.6-0.7,6.7-0.1
				c0.2,0.4,0.1,0.7-0.3,0.8c-0.2,0.1-0.4,0.1-0.6,0.2c-0.3,0.1-0.7,0.1-1,0.2c-1.4,0.2-2.8,0-4.3-0.1c-2.8-0.2-5.6,0-8.4-0.1
				c0.1,0.1,0.2,0.2,0.2,0.3c0-0.5,0-1,0-1.5C66,13.5,65.5,13.5,65.5,13.8L65.5,13.8z"/>
		</g>
		<g>
			<path fill="#1F1E5B" d="M66.7,12c-0.2,0.2-0.2,0.5-0.2,0.8c0,0.3-0.1,0.7,0.2,0.9c0.1,0,0.1,0,0.2,0c0.2-0.2,0.1-0.6,0.1-0.8
				c0-0.3,0.1-0.6-0.2-0.8C66.8,12,66.7,12,66.7,12L66.7,12z"/>
		</g>
		<g>
			<path fill="#1F1E5B" d="M80,12.3c0,0.2,0,0.4,0,0.6c0,0.2,0,0.4,0.1,0.6c0.1,0.1,0.3,0.2,0.4,0c0.1-0.2,0.1-0.4,0.1-0.6
				c0-0.2,0-0.5,0-0.7C80.4,12.1,80,12.1,80,12.3L80,12.3z"/>
		</g>
		<g>
			<path fill="#1F1E5B" d="M74.8,19.8c-0.1,2-0.4,4-0.1,6c0.1-0.1,0.2-0.2,0.3-0.3c-0.6,0-1.2,0-1.8,0c-0.3,0-1.4,0.3-1.5-0.3
				c0-0.4,0-0.7,0-1.1c0-1.4,0.1-2.9,0.1-4.3c-0.1,0.1-0.2,0.2-0.3,0.2c1.2,0,2.3,0.2,3.4-0.1c0.3-0.1,0.3-0.6-0.1-0.5
				c-1.1,0.2-2.2,0.1-3.3,0.1c-0.1,0-0.3,0.1-0.3,0.2c0,2-0.1,4.1,0,6.1c0,0.1,0.1,0.2,0.2,0.2c1.2,0,2.3-0.2,3.5-0.2
				c0.2,0,0.3-0.1,0.3-0.3c-0.2-2,0.1-3.9,0-5.9C75.2,19.5,74.8,19.6,74.8,19.8L74.8,19.8z"/>
		</g>
		<g>
			<path fill="#1F1E5B" d="M73,19.7c-0.2,1.9-0.3,3.9-0.3,5.9c0,0.3,0.5,0.4,0.5,0.1c0-1.9,0.3-4,0.1-5.9C73.3,19.5,73,19.5,73,19.7
				L73,19.7z"/>
		</g>
		<g>
			<path fill="#1F1E5B" d="M74.7,22.1c-1-0.2-2.1-0.1-3.1-0.1c-0.3,0-0.3,0.6,0.1,0.5c1-0.1,2,0.1,3,0C75,22.5,75,22.1,74.7,22.1
				L74.7,22.1z"/>
		</g>
		<g>
			<path fill="#1F1E5B" d="M78.6,15.5c-0.1,0.5-0.1,1-0.2,1.5c0.1-0.1,0.1-0.1,0.2-0.2C77.7,16.9,76.9,17,76,17
				c0.1,0.1,0.2,0.2,0.2,0.2c-0.1-0.5,0-1.1-0.2-1.6c-0.1-0.3-0.6-0.3-0.5,0.1c0.1,0.5,0,1.1,0.2,1.6c0,0.1,0.1,0.2,0.2,0.2
				c0.9,0,1.8-0.1,2.7-0.2c0.1,0,0.2-0.1,0.2-0.2c0.2-0.5,0.2-1.1,0.1-1.6C79,15.3,78.6,15.3,78.6,15.5L78.6,15.5z"/>
		</g>
		<g>
			<path fill="#1F1E5B" d="M69.9,15.9c-0.1,0.4,0,0.9,0,1.3c0.1-0.1,0.1-0.2,0.2-0.2C69.5,17,69,17,68.4,17c-0.4,0-0.5-0.1-0.6-0.5
				c0-0.3,0-0.6,0.1-1c0-0.3-0.4-0.4-0.5-0.1c-0.2,0.6-0.3,1.7,0.4,2c0.3,0.1,0.8,0.1,1.1,0.1c0.4,0,0.9-0.1,1.3-0.1
				c0.1,0,0.2-0.1,0.2-0.2c0-0.4,0-0.9,0-1.4C70.4,15.6,69.9,15.6,69.9,15.9L69.9,15.9z"/>
		</g>
		<g>
			<path fill="#1F1E5B" d="M78.5,30.3C78.5,30.3,78.5,30.4,78.5,30.3c0,0.2,0.2,0.3,0.2,0.1c0-0.1,0,0-0.1,0c0.1,0,0.2-0.1,0.2-0.2
				c0.1-0.4,0-0.9,0.1-1.3c0-0.1-0.1-0.2-0.2-0.2c-0.8-0.3-1.9-0.3-2.8-0.2c-0.1,0-0.2,0.1-0.2,0.2c0,0.6,0,1.1-0.1,1.6
				c-0.1,0.4,0.5,0.4,0.6,0.1c0.1-0.5,0.1-1.1,0.1-1.6c-0.1,0.1-0.2,0.2-0.2,0.2c0.9,0,1.7,0.1,2.6,0.1c-0.1-0.1-0.1-0.2-0.2-0.3
				C78.4,29.4,78.4,29.9,78.5,30.3c-0.1,0,0,0.1,0.1,0.1C78.5,30.4,78.5,30.3,78.5,30.3c0.1,0.1,0.1,0,0.2,0c0,0,0,0,0,0
				C78.7,30.3,78.5,30.2,78.5,30.3L78.5,30.3z"/>
		</g>
		<g>
			<path fill="#1F1E5B" d="M70.2,30.4c0.1-0.5-0.1-1.1-0.2-1.6c0-0.1-0.1-0.2-0.2-0.2c-0.9-0.1-1.7,0.3-2.6,0.1
				c-0.2,0-0.3,0.1-0.3,0.2c-0.1,0.5,0,1.1-0.1,1.6c-0.1,0.4,0.5,0.4,0.5,0.1c0.1-0.5,0-1.1,0.1-1.6c-0.1,0.1-0.2,0.2-0.3,0.2
				c0.9,0.2,1.7-0.1,2.6-0.1c-0.1-0.1-0.2-0.1-0.2-0.2c0.1,0.5,0.2,1,0.3,1.6C69.8,30.7,70.1,30.6,70.2,30.4L70.2,30.4z"/>
		</g>
		<g>
			<path fill="#1F1E5B" d="M78,28.4c0-2.2,0-4.5,0-6.7c0-0.9,0-1.7,0-2.6c0-0.3,0-0.5,0.1-0.8c0.1-0.6,0.7-0.3,0.5-0.2
				c-0.3,0.2,0.1,0.6,0.3,0.4c0.5-0.4,0.2-1.1-0.4-1.2c-0.7-0.2-0.9,0.4-1.1,1c-0.3,1.3-0.1,2.9-0.1,4.2c0,2-0.1,4,0.1,5.9
				C77.6,28.6,78,28.6,78,28.4L78,28.4z"/>
		</g>
		<g>
			<path fill="#1F1E5B" d="M75.9,18.3c0.4,0.4,0.4,0.1,0.3,0.7c0,0.3,0,0.6,0,0.8c0,1,0,1.9,0,2.9c0,1.9,0.2,3.8,0.1,5.6
				c0,0.4,0.5,0.4,0.5,0.1c0.1-1.7-0.1-3.5-0.1-5.2c0-1.6,0.1-3.3,0-4.9c0-1.8-2.4-0.6-1.2,0.3C75.8,18.8,76.1,18.5,75.9,18.3
				L75.9,18.3z"/>
		</g>
		<g>
			<path fill="#1F1E5B" d="M69.7,18.5c0.2,0.7,1.1,0.3,1.1-0.3c0-0.6-1.1-1.4-1.5-0.7c-0.8,1-0.6,2.7-0.6,3.9c0,1.3,0,2.6-0.1,3.9
				c0,1.1-0.1,2.2,0.1,3.3c0,0.2,0.4,0.2,0.4,0c0.2-1,0.1-2.2,0.1-3.2c0-1.2,0-2.3,0.1-3.5c0-0.9,0-1.7,0-2.6c0-0.3,0.1-0.6,0.2-0.9
				c0-0.2,0.1-0.3,0.2-0.4c0.4-0.2,0.6,0,0.4,0.5C70,18.2,69.7,18.2,69.7,18.5L69.7,18.5z"/>
		</g>
		<g>
			<path fill="#1F1E5B" d="M67.5,18.4c0.1-0.1,0.2-0.2,0.3-0.2c0,0.2,0,0.4,0,0.6c0,0.4,0,0.7,0,1.1c0,1-0.1,2.1-0.1,3.1
				c-0.1,1.9-0.1,3.8,0,5.7c0,0.3,0.5,0.2,0.5-0.1c-0.1-2,0-4,0-6c0-1,0.1-2.1,0.1-3.1c0-0.5,0.1-1.1,0-1.7
				c-0.4-1.6-2.5,0.7-0.9,0.9C67.5,18.7,67.6,18.5,67.5,18.4L67.5,18.4z"/>
		</g>
		<g>
			<path fill="#1F1E5B" d="M86.3,25.8c-0.2,0.5-0.3,4.8,0.4,4.6c0.2,0,0.2-0.2,0.1-0.3c0.1,0.1,0-0.4-0.1-0.6c0-0.5,0-1,0-1.4
				c0-0.7,0.1-1.5,0-2.2C86.6,25.6,86.4,25.6,86.3,25.8L86.3,25.8z"/>
		</g>
		<g>
			<path fill="#1F1E5B" d="M82.8,25.8c-0.1,0.8-0.1,1.6-0.1,2.4c0,0.6-0.1,1.3-0.1,1.9c0,0.3,0.5,0.4,0.5,0.1c0.2-1.4,0.3-3,0-4.4
				C83.1,25.6,82.9,25.6,82.8,25.8L82.8,25.8z"/>
		</g>
		<g>
			<path fill="#1F1E5B" d="M84.5,26.5c-0.2,1.1,0,2.4,0,3.5c0,0.3,0.5,0.4,0.5,0.1c0-1.1,0.1-2.4-0.2-3.5
				C84.8,26.3,84.5,26.3,84.5,26.5L84.5,26.5z"/>
		</g>
		<g>
			<path fill="#1F1E5B" d="M63,25.9c0,0.6,0.1,1.3,0.1,1.9c0,0.8,0,1.5,0,2.3c0,0.3,0.5,0.4,0.5,0.1c0-1.3,0.3-3.1-0.3-4.3
				C63.3,25.7,63,25.8,63,25.9L63,25.9z"/>
		</g>
		<g>
			<path fill="#1F1E5B" d="M60.9,26.5c0,0.6,0.1,1.2,0.1,1.9c0,0.7,0,1.5,0,2.2c0,0.3,0.5,0.3,0.5,0c0.1-1.3,0.1-2.9-0.3-4.1
				C61.2,26.3,60.9,26.3,60.9,26.5L60.9,26.5z"/>
		</g>
		<g>
			<path fill="#1F1E5B" d="M59.2,25.6c-0.4,1.5-0.2,3.4-0.1,5c0,0.3,0.5,0.3,0.5,0c0-0.7,0-1.5,0-2.2c0-0.9,0.1-1.9-0.1-2.7
				C59.5,25.5,59.2,25.4,59.2,25.6L59.2,25.6z"/>
		</g>
	</g>
	<g>
		<g>
			<path fill="#1F1E5B" d="M43.3,3.4C44,3.7,44.1,4,43.6,4.5c-0.6,0.4-1-0.4-1.1-0.7c-0.7-1.4,1.3-1.7,2.1-1.2
				c1.5,0.8,1.1,3,1.4,4.4c0.2,0.9,0.5,1.5,1.2,2.1c0.6,0.4,1.2,0.3,1.5-0.3c0.1-0.2,0-0.4-0.2-0.4C48.2,8.3,48,8.2,48,7.8
				c0.3-0.5,0.8-0.5,1.3-0.2c0.7,0.4,0.4,1.5,0,1.9c-1.3,1.4-3.4-0.3-3.8-1.7C45,6.2,45.6,4.2,44.1,3c-0.3-0.2-0.6,0.2-0.3,0.5
				c1,0.8,0.9,2.3,1,3.5c0.1,1,0.4,1.8,1.1,2.6c1.2,1.2,3.4,1.3,4.2-0.3c0.6-1.1-0.5-3-1.9-2.3c-1,0.5-1.3,1.9,0.1,1.9
				c-0.1-0.1-0.1-0.3-0.2-0.4c-0.6,1.1-1.6-0.9-1.7-1.2c-0.1-0.5-0.2-1.1-0.2-1.6c-0.1-1.1-0.2-2.1-1-3c-0.9-1.1-3-1.1-3.5,0.4
				c-0.4,1.1,0.8,2.5,2,2.1c1.1-0.4,0.6-2.1-0.6-1.9C43,3.1,43.1,3.5,43.3,3.4L43.3,3.4z"/>
		</g>
		<g>
			<path fill="#1F1E5B" d="M40,3.5c0-0.1,0-0.1,0-0.1c0-0.1-0.1-0.2-0.2-0.3c-1.4-0.3-1.6,2.3,0.1,2.3c1.7,0,1.4-2.1,0.7-3
				c-1-1.2-2.7-0.3-3.2,0.8C37,3.8,37,4.8,36.9,5.6c0,0.4,0,0.8-0.1,1.2c0,0.4-0.2,0.8-0.4,1.1c-0.3,0.6-1.6,1.7-2,0.4
				c-0.1,0.1-0.3,0.2-0.4,0.3c1.1,0.7,2.3-0.4,1.3-1.5c-0.5-0.5-1.4-0.5-1.9-0.2c-0.7,0.5-0.9,1.3-0.7,2.1c0.4,2,2.8,1.8,4,0.9
				c0.8-0.6,1.3-1.5,1.7-2.4c0.4-1.2-0.4-2.8,0.7-3.8C39.3,3.5,39,3,38.7,3.3c-0.7,0.7-0.8,1.5-0.8,2.5c0,1.2-0.2,2.1-0.9,3
				c-0.8,1.1-2.7,2-3.6,0.5c-0.3-0.5-0.2-1.3,0.3-1.8C34,7.1,34.7,7.2,35,7.6c0.5,0.5-0.3,0.7-0.7,0.5c-0.2-0.1-0.5,0-0.4,0.3
				c0.4,1.3,1.4,1.3,2.4,0.6c1-0.7,1.2-2,1.2-3.1c0.1-1.1,0-2.8,1.2-3.4c0.8-0.4,1.5,0.1,1.8,0.8c0.1,0.3,0.2,0.7,0.1,1
				c-0.1,0.2-0.2,0.4-0.4,0.5c-0.9,0.5-0.6-0.6-0.7-1.2C39.5,3.7,40,3.7,40,3.5L40,3.5z"/>
		</g>
		<g>
			<path fill="#1F1E5B" d="M43.6,1.9c0.1-1-0.9-1.8-1.8-1.9c-1.1-0.1-2.1,0.8-2.3,1.8C39.4,2.1,39.9,2.3,40,2
				c0.3-0.8,0.7-1.3,1.6-1.4c1-0.1,1.3,0.7,1.7,1.4C43.3,2.1,43.5,2.1,43.6,1.9L43.6,1.9z"/>
		</g>
		<g>
			<path fill="#1F1E5B" d="M42.5,2.4c0-1-1.8-1.1-2-0.2c-0.1,0.3,0.3,0.5,0.4,0.2c0.2-0.2,0.3-0.3,0.6-0.4c0.3,0,0.5,0.1,0.6,0.4
				C42.2,2.6,42.5,2.6,42.5,2.4L42.5,2.4z"/>
		</g>
		<g>
			<path fill="#1F1E5B" d="M43.3,8.2c0.6-1-0.7-1.7-1.5-1.8C40.7,6.2,39.7,7,39.5,8c-0.2,1,0.6,2,1.5,2.3c1.4,0.4,2.6-0.7,2.6-2.1
				c0-0.4-0.5-0.4-0.6-0.1c-0.1,1.1-0.9,1.9-2,1.6c-0.7-0.2-1-0.9-1-1.5c0-1.7,3.2-1.7,3-0.1C43,8.2,43.2,8.3,43.3,8.2L43.3,8.2z"/>
		</g>
		<g>
			<path fill="#1F1E5B" d="M49.3,16.5c-0.6,1.1,1,1.9,1.8,1.1c0.9-1.1,0-3-1.5-2.9c-2.1,0.1-2.1,2.9-1.2,4.3c0.6,1,1.4,1.8,2.5,2.2
				c0.8,0.3,1.5,0.3,2.1,0.9c0.3,0.3,0.5,0.6,0.6,1c0.5,1.1-0.8,1.8-1.2,0.8c-0.1,0.1-0.1,0.3-0.2,0.4c1.7-0.3,1.2-2.3-0.3-2.5
				c-1-0.2-1.6,0.6-1.9,1.5c-0.4,1.1,0.5,2.1,1.3,2.7c2.3,1.6,4.8-0.7,4.4-3.1c-0.5-3.4-4.9-2.8-6-5.6c-0.1-0.3-0.6-0.1-0.5,0.2
				c0.4,1.1,1.2,1.8,2.2,2.3c1.6,0.7,3.2,1.2,3.8,3.2c0.3,1.1-0.3,2.2-1.2,2.7c-1,0.6-2.2,0-2.9-0.7c-0.7-0.8-0.7-2.7,0.7-2.7
				c0.8,0,1.5,1.2,0.4,1.4c-0.2,0-0.3,0.2-0.2,0.4c0.3,0.9,1.2,1,1.9,0.5c1-0.7,0.1-2.2-0.5-2.9c-0.5-0.5-1.1-0.8-1.7-0.9
				c-1.1-0.3-1.8-0.8-2.6-1.7c-0.9-1-1.3-2.6-0.2-3.6c0.5-0.5,1.3-0.2,1.7,0.2c0.2,0.2,0.3,0.4,0.3,0.7c0.3,1.2-1.6,1.1-1.3,0.3
				C49.7,16.5,49.4,16.3,49.3,16.5L49.3,16.5z"/>
		</g>
		<g>
			<path fill="#1F1E5B" d="M33,16.5c-0.9,0.6-1.3,0.5-1.2-0.3c0-0.3,0.2-0.6,0.4-0.8c0.7-0.7,1.5-0.2,1.9,0.5
				c0.5,0.8,0.2,1.7-0.3,2.4c-1,1.2-2.7,1.9-4,2.7c-0.9,0.6-2.4,1.9-1.6,3.1c0.7,1,2.2,0.9,3,0c0.1-0.2,0-0.4-0.2-0.4
				c-1-0.2-1-1-0.3-1.5c1.2-0.9,2,0.8,1.7,1.8c-0.7,2.1-3.7,2.5-4.7,0.5c-0.5-1,0.1-2.5,0.7-3.3c0.6-0.8,1.6-1.1,2.4-1.5
				c1.3-0.5,2.4-1,2.9-2.3c0.1-0.3-0.4-0.5-0.5-0.2c-0.7,1.7-2.5,1.8-4,2.5c-1.3,0.6-2.1,1.9-2.3,3.3c-0.4,2.4,2.4,4.3,4.5,2.9
				c0.8-0.6,1.7-1.6,1.7-2.7c-0.1-0.9-0.8-1.9-1.8-1.9c-1.8,0.1-2.4,2.5-0.4,2.9c-0.1-0.1-0.1-0.3-0.2-0.4c-0.8,1-3,0.5-1.8-1.2
				c0.3-0.5,1-0.9,1.5-1.3c0.9-0.5,1.8-1,2.7-1.6c1.4-1,2.6-2.7,1.5-4.3c-1.1-1.6-3.4-0.6-3.1,1.3c0.3,1.9,3.2,1,2.1-0.4
				C33.2,16,32.9,16.3,33,16.5L33,16.5z"/>
		</g>
		<g>
			<path fill="#1F1E5B" d="M49.4,10.7c-0.1,0.7,0,1-0.7,1.1c-0.9,0.1-1.8,0.1-2.7,0c-1.6-0.1-3.2-0.1-4.8-0.2
				c-1.5-0.1-3.1-0.2-4.6-0.1c-1,0-2,0-2.9,0.5c0.1,0.1,0.3,0.2,0.4,0.3c0-0.8,0-1.3,1-1.3c0.6,0,1.1,0,1.7,0
				c1.7-0.2,3.2-0.4,4.9-0.2c1.4,0.1,2.9,0.4,4.3,0.3c0.7,0,1.4-0.3,2.1-0.2c0.6,0.1,0.9,0.2,1.5,0c0.3-0.1,0.1-0.6-0.2-0.5
				c-0.6,0.2-1.3-0.1-2,0c-1,0.1-2,0.2-3.1,0.1c-1.7-0.1-3.4-0.4-5.1-0.3c-0.8,0.1-1.7,0.2-2.5,0.3c-0.7,0.1-1.4,0-2.2,0.1
				c-1,0.1-1,1-0.9,1.8c0,0.2,0.2,0.4,0.4,0.3c0.9-0.5,2-0.4,2.9-0.5c1.6-0.1,3.1,0.1,4.7,0.2c1.3,0.1,2.7,0.1,4,0.2
				c1.3,0.1,2.7,0.1,4-0.2c0.1,0,0.2-0.1,0.2-0.2c0.1-0.5,0.1-0.8,0.1-1.3C49.8,10.5,49.5,10.5,49.4,10.7L49.4,10.7z"/>
		</g>
		<g>
			<path fill="#1F1E5B" d="M33.5,13.7c0,0.5,0,0.9,0,1.4c0,0.1,0.1,0.3,0.2,0.3c3.5,0.2,7.1,0.1,10.6,0.3c0.9,0,4.8,0.3,4.9-1.3
				c0.1-1.7-3.7-1.1-4.6-1c-3.7,0.2-7.3,0.3-11,0.1c-0.4,0-0.4,0.5-0.1,0.6c2.7,0.1,5.4,0.2,8.1,0.1c2.1-0.1,4.6-0.7,6.7-0.1
				c0.2,0.4,0.1,0.7-0.3,0.8c-0.2,0.1-0.4,0.1-0.6,0.2c-0.3,0.1-0.6,0.1-1,0.2c-1.4,0.2-2.8,0-4.3-0.1c-2.8-0.2-5.6,0-8.4-0.1
				c0.1,0.1,0.2,0.2,0.2,0.3c0-0.5,0-1,0-1.5C34,13.4,33.5,13.4,33.5,13.7L33.5,13.7z"/>
		</g>
		<g>
			<path fill="#1F1E5B" d="M34.7,11.9c-0.2,0.2-0.2,0.5-0.2,0.8c0,0.3-0.1,0.7,0.1,0.9c0.1,0,0.1,0,0.2,0c0.2-0.2,0.1-0.6,0.1-0.8
				c0-0.3,0.1-0.6-0.2-0.9C34.8,11.8,34.7,11.9,34.7,11.9L34.7,11.9z"/>
		</g>
		<g>
			<path fill="#1F1E5B" d="M48,12.2c0,0.2,0,0.4,0,0.6c0,0.2,0,0.4,0.1,0.6c0.1,0.1,0.3,0.2,0.4,0c0.1-0.2,0.1-0.4,0.1-0.6
				c0-0.2,0-0.5,0-0.7C48.4,11.9,48,12,48,12.2L48,12.2z"/>
		</g>
		<g>
			<path fill="#1F1E5B" d="M42.8,19.6c-0.1,2-0.4,4-0.1,6c0.1-0.1,0.2-0.2,0.3-0.3c-0.4,0-0.9,0-1.3,0c-0.4,0-0.9,0-1.3,0.1
				c-0.6,0-0.6-0.3-0.6-0.8c0-1.6,0.1-3.3,0.1-4.9c-0.1,0.1-0.2,0.2-0.3,0.2c1.1,0,2.3,0.2,3.4-0.1c0.3-0.1,0.3-0.6-0.1-0.5
				c-1.1,0.2-2.2,0.1-3.3,0.1c-0.1,0-0.3,0.1-0.3,0.2c0,2-0.1,4.1,0,6.1c0,0.1,0.1,0.2,0.2,0.2c1.2,0,2.3-0.1,3.5-0.1
				c0.2,0,0.3-0.1,0.3-0.3c-0.2-2,0.1-3.9,0-5.9C43.2,19.4,42.8,19.4,42.8,19.6L42.8,19.6z"/>
		</g>
		<g>
			<path fill="#1F1E5B" d="M41,19.6c-0.2,1.9-0.3,3.9-0.3,5.9c0,0.3,0.5,0.4,0.5,0c0-1.9,0.3-4,0.1-5.9C41.4,19.4,41,19.4,41,19.6
				L41,19.6z"/>
		</g>
		<g>
			<path fill="#1F1E5B" d="M42.7,22c-1-0.2-2.1-0.1-3.1-0.1c-0.3,0-0.3,0.6,0.1,0.5c1-0.1,2,0.1,3,0C43,22.4,43,22,42.7,22L42.7,22z
				"/>
		</g>
		<g>
			<path fill="#1F1E5B" d="M46.6,15.4c-0.1,0.5-0.1,1-0.2,1.5c0.1-0.1,0.1-0.1,0.2-0.2c-0.8,0.1-1.7,0.2-2.5,0.1
				c0.1,0.1,0.2,0.2,0.2,0.2c-0.1-0.5,0-1.1-0.2-1.6c-0.1-0.3-0.6-0.3-0.5,0.1c0.1,0.5,0,1.1,0.2,1.6c0,0.1,0.1,0.2,0.2,0.2
				c0.9,0,1.8-0.1,2.7-0.2c0.1,0,0.2-0.1,0.2-0.2c0.2-0.5,0.2-1.1,0.1-1.6C47,15.1,46.6,15.2,46.6,15.4L46.6,15.4z"/>
		</g>
		<g>
			<path fill="#1F1E5B" d="M37.9,15.7c-0.1,0.4,0,0.9,0,1.3c0.1-0.1,0.1-0.2,0.2-0.2c-0.6,0.1-1.1,0.2-1.7,0.1
				c-0.4,0-0.5-0.1-0.6-0.5c0-0.3,0-0.6,0.1-0.9c0-0.3-0.4-0.4-0.5-0.1c-0.2,0.6-0.3,1.7,0.4,2c0.3,0.1,0.8,0.1,1.1,0.1
				c0.4,0,0.9-0.1,1.3-0.1c0.1,0,0.2-0.1,0.2-0.2c0-0.4,0-0.9,0-1.4C38.4,15.4,37.9,15.5,37.9,15.7L37.9,15.7z"/>
		</g>
		<g>
			<path fill="#1F1E5B" d="M46.5,30.2C46.5,30.2,46.5,30.2,46.5,30.2c0,0.2,0.2,0.3,0.2,0.1c0-0.1,0,0-0.1,0c0.1,0,0.2-0.1,0.2-0.2
				c0.1-0.4,0-0.9,0.1-1.3c0-0.1-0.1-0.2-0.2-0.2c-0.8-0.3-1.9-0.3-2.8-0.2c-0.1,0-0.2,0.1-0.2,0.2c0,0.6,0,1.1-0.1,1.6
				c-0.1,0.4,0.5,0.4,0.6,0.1c0.1-0.5,0.1-1.1,0.1-1.6c-0.1,0.1-0.2,0.2-0.2,0.2c0.9,0,1.7,0.1,2.6,0.1c-0.1-0.1-0.1-0.2-0.2-0.3
				C46.4,29.2,46.4,29.7,46.5,30.2c-0.1,0,0,0.1,0.1,0.1C46.5,30.3,46.5,30.2,46.5,30.2c0.1,0.1,0.2,0.1,0.2,0c0,0,0,0,0,0
				C46.7,30.1,46.5,30.1,46.5,30.2L46.5,30.2z"/>
		</g>
		<g>
			<path fill="#1F1E5B" d="M38.2,30.3c0.1-0.5-0.1-1.1-0.2-1.6c0-0.1-0.1-0.2-0.2-0.2c-0.9-0.1-1.7,0.3-2.6,0.1
				c-0.2,0-0.3,0.1-0.3,0.2c-0.1,0.5,0,1.1-0.1,1.6c-0.1,0.4,0.5,0.4,0.5,0.1c0.1-0.5,0-1.1,0.1-1.6c-0.1,0.1-0.2,0.2-0.3,0.2
				c0.9,0.2,1.7-0.1,2.6-0.1c-0.1-0.1-0.2-0.1-0.2-0.2c0.1,0.5,0.2,1,0.3,1.6C37.8,30.5,38.1,30.5,38.2,30.3L38.2,30.3z"/>
		</g>
		<g>
			<path fill="#1F1E5B" d="M46,28.3c0-2.2,0-4.5,0-6.7c0-0.9,0-1.7,0-2.6c0-0.3,0-0.5,0.1-0.8c0.1-0.6,0.7-0.3,0.5-0.2
				c-0.3,0.2,0.1,0.6,0.3,0.4c0.8-0.6-1-2.2-1.4-0.2c-0.3,1.3-0.1,2.9-0.1,4.2c0,2-0.1,4,0.1,5.9C45.6,28.5,46,28.5,46,28.3L46,28.3
				z"/>
		</g>
		<g>
			<path fill="#1F1E5B" d="M43.9,18.2c0.4,0.4,0.4,0.1,0.3,0.7c0,0.3,0,0.5,0,0.8c0,1,0,1.9,0,2.9c0,1.9,0.2,3.8,0.1,5.6
				c0,0.4,0.5,0.4,0.5,0.1c0.1-1.7-0.1-3.5-0.1-5.2c0-1.6,0.1-3.3,0-4.9c0-1.8-2.4-0.6-1.2,0.3C43.8,18.7,44.1,18.4,43.9,18.2
				L43.9,18.2z"/>
		</g>
		<g>
			<path fill="#1F1E5B" d="M37.8,18.3c0.2,0.7,1.1,0.3,1.1-0.3c0-0.6-1.1-1.4-1.5-0.7c-0.8,1-0.6,2.7-0.6,3.9c0,1.3,0,2.6-0.1,3.9
				c0,1.1-0.1,2.2,0.1,3.3c0,0.2,0.4,0.2,0.4,0c0.2-1,0.1-2.2,0.1-3.2c0-1.2,0-2.3,0.1-3.5c0-0.9,0-1.7,0-2.6c0-0.3,0.1-0.6,0.2-0.9
				c0-0.2,0.1-0.3,0.2-0.4c0.4-0.2,0.6,0,0.4,0.5C38,18,37.7,18.1,37.8,18.3L37.8,18.3z"/>
		</g>
		<g>
			<path fill="#1F1E5B" d="M35.5,18.2c0.1-0.1,0.2-0.2,0.3-0.2c0,0.2,0,0.4,0,0.6c0,0.4,0,0.7,0,1.1c0,1-0.1,2.1-0.1,3.1
				c-0.1,1.9-0.1,3.8,0,5.7c0,0.3,0.5,0.2,0.5-0.1c-0.1-2,0-4,0-6c0-1,0.1-2.1,0.1-3.1c0-0.5,0.1-1.1,0-1.7
				c-0.4-1.6-2.5,0.7-0.9,0.9C35.5,18.6,35.6,18.3,35.5,18.2L35.5,18.2z"/>
		</g>
		<g>
			<path fill="#1F1E5B" d="M54.3,25.7c-0.2,0.5-0.3,4.8,0.4,4.6c0.2,0,0.2-0.2,0.1-0.3c0.1,0.1,0-0.4-0.1-0.6c0-0.5,0-1,0-1.4
				c0-0.7,0.1-1.5,0-2.2C54.6,25.5,54.4,25.5,54.3,25.7L54.3,25.7z"/>
		</g>
		<g>
			<path fill="#1F1E5B" d="M50.8,25.6c-0.2,0.8-0.1,1.6-0.1,2.4c0,0.6-0.1,1.3-0.1,1.9c0,0.3,0.5,0.4,0.5,0.1c0.2-1.4,0.3-3,0-4.4
				C51.1,25.4,50.9,25.5,50.8,25.6L50.8,25.6z"/>
		</g>
		<g>
			<path fill="#1F1E5B" d="M52.5,26.4c-0.2,1.1,0,2.4,0,3.5c0,0.3,0.5,0.4,0.5,0.1c0-1.1,0.1-2.4-0.2-3.5
				C52.8,26.1,52.5,26.2,52.5,26.4L52.5,26.4z"/>
		</g>
		<g>
			<path fill="#1F1E5B" d="M31,25.8c0,0.6,0.1,1.3,0.1,1.9c0,0.8,0,1.5,0,2.3c0,0.3,0.5,0.4,0.5,0.1c0-1.3,0.3-3.1-0.2-4.3
				C31.3,25.6,31,25.7,31,25.8L31,25.8z"/>
		</g>
		<g>
			<path fill="#1F1E5B" d="M28.9,26.4c0,0.6,0.1,1.2,0.1,1.9c0,0.7,0,1.5,0,2.2c0,0.3,0.5,0.3,0.5,0c0.1-1.3,0.1-2.9-0.3-4.1
				C29.2,26.1,28.9,26.2,28.9,26.4L28.9,26.4z"/>
		</g>
		<g>
			<path fill="#1F1E5B" d="M27.2,25.5c-0.4,1.5-0.2,3.4-0.1,5c0,0.3,0.5,0.3,0.5,0c0-0.7,0-1.5,0-2.2c0-0.9,0.1-1.9-0.1-2.7
				C27.5,25.4,27.2,25.3,27.2,25.5L27.2,25.5z"/>
		</g>
	</g>
	<g>
		<g>
			<path fill="#1F1E5B" d="M32.9,56.9c0.4-1.9,0.6-4.2,0-6.1c-0.4-1.3-1.7-3.2-3.3-2.8c-1.3,0.4-1.9,2.1-2.2,3.3
				c-0.2,0.8-0.1,1.6,0,2.3c0,1,0,2,0.2,3c0.1,0.3,0.5,0.3,0.5,0c0.2-1.2-0.1-2.6-0.2-3.9c0-1.3,0.2-2.8,1.2-3.8
				c1.6-1.7,3.2,1.6,3.4,2.9c0.3,1.6,0,3.3-0.1,5C32.3,57.2,32.8,57.3,32.9,56.9L32.9,56.9z"/>
		</g>
	</g>
	<g>
		<g>
			<path fill="#1F1E5B" d="M26.8,57c-0.3,0.5,0,1.3,0.1,1.8c0.1,0.3,0.1,0.7,0.1,1c0,0.5-0.4,0.5-0.8,0.7c-0.1,0.1-0.1,0.3,0.1,0.4
				c0.7,0.2,1.2-0.5,1.3-1.2c0-0.5-0.1-0.9-0.2-1.3c-0.1-0.4-0.1-0.9-0.2-1.3C27.1,56.9,26.9,56.9,26.8,57L26.8,57z"/>
		</g>
	</g>
	<g>
		<g>
			<path fill="#1F1E5B" d="M25.5,60.7c-0.4-0.2-0.7-0.4-0.6-0.9c0.1-0.4,0.3-0.7,0.4-1.1c0.2-0.6,0.3-1.1,0-1.6
				c-0.2-0.3-0.6,0.1-0.4,0.4c0.4,0.6-0.3,1.6-0.4,2.2c-0.2,0.7,0.2,1.3,0.9,1.5C25.5,61.1,25.7,60.8,25.5,60.7L25.5,60.7z"/>
		</g>
	</g>
	<g>
		<g>
			<path fill="#1F1E5B" d="M26.9,56.9c-0.6,0.2-2.2,0.4-2.2-0.6c-0.1,0.1-0.2,0.2-0.2,0.3c0.4-0.1,2.4-0.6,2.3,0.3
				c0,0.4,0.5,0.4,0.6,0.1c0.1-1.5-2.1-1.1-3-0.9c-0.1,0-0.2,0.1-0.2,0.3c0,1.4,2,1.6,2.9,1.1C27.4,57.2,27.3,56.8,26.9,56.9
				L26.9,56.9z"/>
		</g>
	</g>
	<g>
		<g>
			<path fill="#1F1E5B" d="M34.3,57.2c0.3,1.3-1.1,3.3,0.5,4c0.3,0.2,0.5-0.4,0.2-0.5c-1.1-0.5,0.3-2.6-0.2-3.6
				C34.6,56.8,34.2,56.9,34.3,57.2L34.3,57.2z"/>
		</g>
	</g>
	<g>
		<g>
			<path fill="#1F1E5B" d="M36.1,61.3c0.7-0.4,0.9-0.9,0.8-1.7c-0.1-0.4-0.2-0.7-0.3-1c-0.2-0.6,0.1-0.8,0.3-1.2
				c0.1-0.1-0.1-0.3-0.2-0.3c-0.6,0.2-0.8,0.9-0.7,1.5c0.2,0.9,0.9,1.6-0.1,2.3C35.5,61,35.8,61.4,36.1,61.3L36.1,61.3z"/>
		</g>
	</g>
	<g>
		<g>
			<path fill="#1F1E5B" d="M36.5,56.7c-0.4-0.1-0.9,0.1-1.3,0.1c-0.3,0-1.2-0.1-0.7-0.5c0.3-0.2,0.8-0.2,1.2-0.1
				c0.5,0.1,0.7,0.4,0.6,0.9c-0.1,0.3,0.4,0.4,0.5,0.1c0.5-1.5-1.8-2-2.8-1.3c-0.6,0.4-0.4,1.2,0.2,1.4c0.3,0.1,0.7,0.1,1.1,0.1
				c0.3,0,0.8,0,1.1-0.2C36.7,57,36.7,56.7,36.5,56.7L36.5,56.7z"/>
		</g>
	</g>
	<g>
		<g>
			<path fill="#1F1E5B" d="M47.7,57C47.7,57,47.6,57,47.7,57c-0.1,0-0.2,0.1-0.2,0.2c-0.1,0.4-0.4,0.9-0.4,1.3c0,0.8,0.9,2,0,2.6
				c-0.3,0.2,0.1,0.6,0.4,0.4c0.7-0.4,0.7-1,0.5-1.8c-0.1-0.4-0.4-0.9-0.3-1.3c0-0.3,0.2-0.7,0.3-1c0-0.1,0-0.2-0.1-0.3
				C47.8,57,47.7,57,47.7,57L47.7,57z"/>
		</g>
	</g>
	<g>
		<g>
			<path fill="#1F1E5B" d="M46,60.9c-0.8-0.3-0.2-1.3,0-1.9c0.2-0.5,0.4-1.2,0.1-1.7c-0.1-0.1-0.2-0.2-0.3-0.2c-0.1,0-0.1,0-0.2,0.1
				c-0.1,0.1-0.1,0.2,0,0.3c0.6,1.1-1.7,3.3,0.2,3.8C46.1,61.5,46.3,61,46,60.9L46,60.9z"/>
		</g>
	</g>
	<g>
		<g>
			<path fill="#1F1E5B" d="M47.4,56.9c-0.5-0.1-1,0-1.4,0c-0.2,0-0.5,0-0.7-0.1c-0.1-0.1,0.1-0.3,0.2-0.4c0.4-0.4,1.2-0.1,1.6,0
				c0.2,0.1,0.5,0.2,0.7,0.4c0.2,0.2-0.1,0.4-0.3,0.5c-0.3,0.2,0,0.6,0.3,0.5c0.8-0.4,0.7-1.2,0-1.6c-0.7-0.4-1.7-0.6-2.5-0.3
				c-0.6,0.3-1,1.2-0.2,1.5c0.6,0.3,1.6,0.2,2.3,0.1C47.7,57.3,47.7,56.9,47.4,56.9L47.4,56.9z"/>
		</g>
	</g>
	<g>
		<g>
			<path fill="#1F1E5B" d="M55.8,57.2c0.3,1.4-1.8,3.3,0.4,4.1c0.4,0.1,0.5-0.4,0.2-0.5c-1.5-0.6,0.5-2.5-0.1-3.7
				C56.1,56.8,55.7,56.9,55.8,57.2L55.8,57.2z"/>
		</g>
	</g>
	<g>
		<g>
			<path fill="#1F1E5B" d="M57.3,56.7c-0.5,1.3,1.3,3.1-0.2,4.1c-0.3,0.2,0,0.6,0.3,0.5c0.6-0.3,0.9-0.9,0.9-1.6
				c-0.1-1-0.4-2-0.5-2.9C57.7,56.6,57.4,56.5,57.3,56.7L57.3,56.7z"/>
		</g>
	</g>
	<g>
		<g>
			<path fill="#1F1E5B" d="M57.8,56.6c-0.6,0-1.2,0.2-1.8,0c-0.4-0.2,0-0.5,0.2-0.6c0.3-0.2,0.8-0.2,1.2-0.1
				c0.4,0.1,0.5,0.4,0.4,0.8c-0.1,0.4,0.4,0.5,0.5,0.2c0.3-0.6,0-1.2-0.5-1.5c-0.6-0.3-1.3-0.2-1.8,0.1c-0.5,0.2-0.8,0.8-0.5,1.3
				c0.5,0.7,1.7,0.4,2.4,0.3C58.1,57.1,58.1,56.6,57.8,56.6L57.8,56.6z"/>
		</g>
	</g>
	<g>
		<g>
			<path fill="#1F1E5B" d="M66.1,57.2c-0.1,1-0.6,1.9-0.6,2.9c0,0.7,0.8,1.7,1.5,1c0.1-0.1,0.1-0.3,0-0.3c-0.3-0.2-0.7,0-0.8-0.4
				c-0.1-0.4,0-0.8,0.1-1.2c0.1-0.6,0.5-1.4,0.4-2C66.5,56.9,66.1,56.9,66.1,57.2L66.1,57.2z"/>
		</g>
	</g>
	<g>
		<g>
			<path fill="#1F1E5B" d="M67.4,57c-0.1,0.8,1.3,3.3,0.3,3.7c-0.2,0.1-0.2,0.5,0.1,0.5c1.8,0,0.2-3.3,0.1-4.2
				C67.8,56.7,67.4,56.8,67.4,57L67.4,57z"/>
		</g>
	</g>
	<g>
		<g>
			<path fill="#1F1E5B" d="M67.5,57c-0.4,0-0.8,0.1-1.2,0c-0.3-0.1-0.7-0.4-0.2-0.6c0.4-0.2,2.1-0.1,1.6,0.6
				c-0.2,0.3,0.3,0.6,0.5,0.3c1-1.4-1.4-2-2.4-1.5c-0.6,0.3-0.7,1.2-0.1,1.5c0.5,0.3,1.5,0.4,2,0.1C67.9,57.3,67.8,56.9,67.5,57
				L67.5,57z"/>
		</g>
	</g>
	<g>
		<g>
			<path fill="#1F1E5B" d="M77.2,57.1c-0.2,0.3-0.2,0.8-0.3,1.1c-0.1,0.5-0.3,1.1-0.3,1.6c-0.1,0.8,0.3,1.7,1.2,1.3
				c0.2-0.1,0.2-0.5-0.1-0.5c-0.4,0-0.6-0.1-0.6-0.5c0-0.4,0.1-0.8,0.2-1.2c0.1-0.5,0.5-1.4,0.2-1.8C77.5,57,77.3,57,77.2,57.1
				L77.2,57.1z"/>
		</g>
	</g>
	<g>
		<g>
			<path fill="#1F1E5B" d="M78.8,57c-0.3,0.5-0.2,1,0,1.5c0.3,0.9,0.8,1.6,0,2.3c-0.2,0.2,0,0.6,0.3,0.4c1.7-0.8-0.1-2.8,0.2-4
				C79.3,57,78.9,56.7,78.8,57L78.8,57z"/>
		</g>
	</g>
	<g>
		<g>
			<path fill="#1F1E5B" d="M78.8,56.8c-0.5,0.1-1,0.2-1.5,0c-0.3-0.2-0.1-0.5,0.1-0.6c0.3-0.2,0.7-0.2,1-0.1
				c0.4,0.1,0.5,0.4,0.5,0.8c0,0.4,0.5,0.4,0.6,0.1c0.3-1.5-1.5-1.8-2.5-1.2c-0.5,0.3-0.6,0.9-0.2,1.3c0.4,0.5,1.6,0.5,2.1,0.2
				C79.3,57.2,79.1,56.8,78.8,56.8L78.8,56.8z"/>
		</g>
	</g>
	<g>
		<g>
			<path fill="#1F1E5B" d="M87.1,57.3C87.1,57.3,87.1,57.3,87.1,57.3c-0.1,0-0.2,0-0.3,0.2c-0.4,1-1.2,4,0.6,4.1
				c0.3,0,0.4-0.5,0.1-0.5c-1.3-0.3-0.5-2.5-0.3-3.4c0-0.1,0-0.2-0.1-0.2C87.2,57.3,87.2,57.3,87.1,57.3
				C87.2,57.3,87.2,57.2,87.1,57.3L87.1,57.3z"/>
		</g>
	</g>
	<g>
		<g>
			<path fill="#1F1E5B" d="M88.3,61.3c1.4-1.2,0.3-2.5,0.1-4c-0.1-0.4-0.6-0.3-0.6,0.1c0.2,1.2,1.2,2.4,0.2,3.5
				C87.8,61.2,88.1,61.6,88.3,61.3L88.3,61.3z"/>
		</g>
	</g>
	<g>
		<g>
			<path fill="#1F1E5B" d="M88.6,57.3c-0.4-0.1-0.9-0.1-1.3-0.2c-0.2,0-0.5-0.1-0.6-0.3c-0.2-0.1,0-0.4,0.1-0.5c0.3-0.4,1-0.1,1.3,0
				c0.2,0.1,0.4,0.2,0.5,0.4c0.1,0.2-0.2,0.4-0.3,0.5c-0.2,0.2,0,0.5,0.3,0.4c0.8-0.3,0.7-1.2,0.2-1.7c-0.5-0.4-1.5-0.7-2.1-0.3
				c-0.6,0.4-0.8,1.3-0.1,1.7c0.6,0.3,1.5,0.4,2.1,0.3C88.7,57.7,88.8,57.4,88.6,57.3L88.6,57.3z"/>
		</g>
	</g>
	<g>
		<g>
			<path fill="#1F1E5B" d="M89.6,60.8c-19.8,0.2-39.6,0-59.4-0.2c-2.3,0-4.6-0.1-6.9,0c-0.4,0-0.4,0.6-0.1,0.6
				c6.5-0.1,13.1,0.1,19.7,0.2c8.5,0.1,17,0.2,25.4,0.1c7.1,0,14.2,0.1,21.3-0.2C89.9,61.3,89.9,60.8,89.6,60.8L89.6,60.8z"/>
		</g>
	</g>
	<g>
		<g>
			<path fill="#1F1E5B" d="M86.2,56.9c-2.2-0.3-4.6-0.3-6.9-0.2c-0.4,0-0.3,0.6,0.1,0.6c2.2-0.1,4.6,0.4,6.8,0
				C86.4,57.2,86.4,56.9,86.2,56.9L86.2,56.9z"/>
		</g>
	</g>
	<g>
		<g>
			<path fill="#1F1E5B" d="M85.4,57c-0.2,0.7-0.1,1.5-0.1,2.2c0,0.6,0,1.3,0,1.9c0,0.3,0.5,0.3,0.5,0c0.1-0.7,0-1.4,0-2.1
				c0-0.7,0.1-1.4-0.1-2C85.7,56.8,85.4,56.8,85.4,57L85.4,57z"/>
		</g>
	</g>
	<g>
		<g>
			<path fill="#1F1E5B" d="M83.7,56.9c-0.3,0.8-0.1,1.7-0.1,2.5c0,0.5-0.1,1.2,0.1,1.6c0.1,0.2,0.4,0.1,0.4-0.1c0-0.1,0-0.1,0-0.1
				c-0.1-0.2-0.3-0.1-0.4,0c0,0,0,0,0-0.1c0.1,0.1,0.2,0.2,0.3,0.2c0.1-0.5,0-1,0-1.5c0-0.8,0.1-1.8-0.1-2.6
				C84,56.7,83.8,56.7,83.7,56.9L83.7,56.9z"/>
		</g>
	</g>
	<g>
		<g>
			<path fill="#1F1E5B" d="M82.2,57.1C82,58.3,81.8,59.8,82,61c0.1,0.3,0.5,0.2,0.5-0.1c0,0,0,0,0,0c-0.1-0.3-0.4-0.2-0.5,0
				c0,0,0,0,0,0c-0.1,0.3,0.4,0.4,0.5,0c0.1-0.4,0-0.9,0-1.3c0-0.9,0.2-1.7,0.1-2.6C82.6,56.8,82.2,56.9,82.2,57.1L82.2,57.1z"/>
		</g>
	</g>
	<g>
		<g>
			<path fill="#1F1E5B" d="M80.3,57.1c-0.1,0.7-0.1,1.4-0.1,2.1c0,0.5,0,1.1,0.2,1.6c0.1,0.3,0.5,0.1,0.5-0.2c0-0.6-0.1-1.3-0.1-1.9
				c0-0.6,0.1-1.2,0-1.7C80.7,56.8,80.3,56.8,80.3,57.1L80.3,57.1z"/>
		</g>
	</g>
	<g>
		<g>
			<path fill="#1F1E5B" d="M85.8,56.5c0.4-2.5,1.7-8-2.2-8.5c-1.5-0.2-2.4,1.2-2.6,2.4c-0.2,0.9-0.2,1.9-0.3,2.8
				c-0.1,1.1-0.2,2.2,0,3.4c0.1,0.4,0.6,0.3,0.6-0.1c-0.2-1.5,0.1-3,0.1-4.6c0.1-1.5,0.5-3.8,2.6-3.3c3.1,0.8,1.1,5.8,1.4,7.8
				C85.4,56.8,85.7,56.7,85.8,56.5L85.8,56.5z"/>
		</g>
	</g>
	<g>
		<g>
			<path fill="#1F1E5B" d="M85.6,52.2C85.6,52.2,85.6,52.2,85.6,52.2c0-0.2-0.1-0.3-0.2-0.3c-1.4-0.2-2.9,0.3-4.3,0
				c-0.3-0.1-0.4,0.4-0.1,0.5c0.6,0.3,1.4,0.1,2,0.1c0.8,0,1.5-0.1,2.3-0.1C85.4,52.4,85.5,52.3,85.6,52.2
				C85.6,52.2,85.6,52.2,85.6,52.2L85.6,52.2z"/>
		</g>
	</g>
	<g>
		<g>
			<path fill="#1F1E5B" d="M83.2,48.2c-0.1,1.5-0.1,3-0.1,4.5c0,1.3-0.3,2.7-0.2,3.9c0,0.2,0.3,0.2,0.4,0c0.4-1.2,0.3-2.7,0.4-3.9
				c0-1.5,0.1-3.1,0-4.6C83.6,47.9,83.2,47.9,83.2,48.2L83.2,48.2z"/>
		</g>
	</g>
	<g>
		<g>
			<path fill="#1F1E5B" d="M76.6,56.5c-2.9-0.1-5.9-0.3-8.8-0.1c-0.3,0-0.3,0.6,0,0.6c2.9,0.1,5.8,0.2,8.7,0.1
				C76.9,57.1,77,56.6,76.6,56.5L76.6,56.5z"/>
		</g>
	</g>
	<g>
		<g>
			<path fill="#1F1E5B" d="M75.3,56.6c-0.1,1.5-0.1,3.1-0.1,4.6c0.2,0,0.4,0,0.6,0c0-0.3-0.1-0.5-0.3-0.8c-0.1-0.1-0.2,0-0.2,0.1
				c0,0.3,0,0.5,0,0.8c0,0.3,0.6,0.3,0.6,0c0-1.5,0.1-3.1,0-4.7C75.7,56.3,75.3,56.3,75.3,56.6L75.3,56.6z"/>
		</g>
	</g>
	<g>
		<g>
			<path fill="#1F1E5B" d="M73.1,56.9c-0.2,0.7-0.1,1.6,0,2.3c0,0.3,0.1,0.5,0.1,0.8c0,0.1,0.1,0.7,0.1,0.7c0.1,0,0.2,0,0.3-0.1
				c0,0,0,0,0,0c-0.2-0.1-0.5,0.1-0.3,0.3c0,0,0,0,0,0c0.1,0.1,0.2,0.1,0.3,0c0.3-0.2,0.1-1,0.1-1.3c-0.1-1-0.1-2-0.3-2.9
				C73.4,56.7,73.2,56.7,73.1,56.9L73.1,56.9z"/>
		</g>
	</g>
	<g>
		<g>
			<path fill="#1F1E5B" d="M71.5,56.9c-0.1,0.6-0.1,1.3-0.1,1.9c0,0.7,0.1,1.6,0,2.3c0.2,0,0.4,0,0.5,0.1c0-0.1,0-0.2-0.1-0.3
				c-0.1-0.3-0.6-0.1-0.5,0.2c0,0.1,0,0.1,0,0.2c0,0.3,0.4,0.5,0.5,0.1c0.2-0.6,0.1-1.5,0.1-2.1c0-0.8,0.1-1.6,0-2.3
				C71.9,56.6,71.5,56.7,71.5,56.9L71.5,56.9z"/>
		</g>
	</g>
	<g>
		<g>
			<path fill="#1F1E5B" d="M69.7,56.7c-0.3,1.4-0.4,3.1-0.1,4.5c0.1,0.3,0.6,0.3,0.5-0.1c-0.2-1.5,0.1-2.9-0.1-4.4
				C70.1,56.6,69.7,56.5,69.7,56.7L69.7,56.7z"/>
		</g>
	</g>
	<g>
		<g>
			<path fill="#1F1E5B" d="M65.2,56.6c-1.2,0-2.4,0.2-3.6,0.3c-0.8,0-1.6,0-2.3,0c-0.6,0-1.1-0.3-1.6-0.3c-0.2,0-0.4,0.2-0.2,0.4
				c0.8,0.8,2.5,0.6,3.5,0.6c1.4,0,2.9-0.1,4.3-0.4C65.7,57,65.6,56.6,65.2,56.6L65.2,56.6z"/>
		</g>
	</g>
	<g>
		<g>
			<path fill="#1F1E5B" d="M64.6,56.8c-0.2,1.3-0.2,2.7-0.2,4.1c0,0.4,0.5,0.4,0.6,0.1c0-1.4,0.3-2.8,0.1-4.1
				C64.9,56.6,64.6,56.6,64.6,56.8L64.6,56.8z"/>
		</g>
	</g>
	<g>
		<g>
			<path fill="#1F1E5B" d="M62.4,56.8c-0.1,1.3,0.2,2.6,0,3.9c0,0.1,0,0.2,0.1,0.3c0,0,0.1,0,0.1,0c0.2,0,0.3-0.1,0.3-0.2
				c0.3-1.3,0-2.7-0.1-3.9C62.8,56.6,62.4,56.6,62.4,56.8L62.4,56.8z"/>
		</g>
	</g>
	<g>
		<g>
			<path fill="#1F1E5B" d="M60.7,57.1c-0.3,0.6-0.1,1.4-0.1,2c0,0.4,0,0.7,0,1.1c0,0.1,0,0.3-0.1,0.4c0,0.1-0.1,0.3,0,0.1
				c-0.1,0.2,0.1,0.4,0.3,0.3c0.5-0.2,0.4-1.2,0.4-1.6c0-0.7,0.1-1.7-0.2-2.4C60.9,56.9,60.7,56.9,60.7,57.1L60.7,57.1z"/>
		</g>
	</g>
	<g>
		<g>
			<path fill="#1F1E5B" d="M58.9,57.2c-0.1,0.8,0,1.7,0,2.6c0,0.4-0.2,1.2,0.1,1.5c0.2,0.2,0.5-0.1,0.3-0.2c0,0,0,0,0,0
				c-0.1-0.1-0.2-0.1-0.2,0c0,0,0,0,0,0c-0.2,0.2,0.1,0.5,0.2,0.3c0.3-0.3,0.2-1,0.2-1.5c0-0.8,0.2-2-0.3-2.7
				C59.1,57,58.9,57,58.9,57.2L58.9,57.2z"/>
		</g>
	</g>
	<g>
		<g>
			<path fill="#1F1E5B" d="M55.5,56.9c-1.3-0.1-2.7-0.2-4-0.2c-1.1,0-2.4-0.1-3.5,0.3c-0.3,0.1-0.1,0.6,0.2,0.5
				c2.5-0.4,4.8,0.1,7.3-0.1C55.8,57.4,55.8,56.9,55.5,56.9L55.5,56.9z"/>
		</g>
	</g>
	<g>
		<g>
			<path fill="#1F1E5B" d="M53.8,57.1c-0.1,0.7,0,1.4,0,2.1c0,0.6,0,1.3,0.1,1.9c0.1,0.3,0.5,0.3,0.5,0c0-0.6,0-1.2-0.1-1.8
				c0-0.7,0-1.5-0.1-2.2C54.1,56.9,53.8,56.9,53.8,57.1L53.8,57.1z"/>
		</g>
	</g>
	<g>
		<g>
			<path fill="#1F1E5B" d="M52.1,56.8c-0.2,1.5,0.2,3-0.1,4.4c-0.1,0.3,0.4,0.4,0.5,0.1c0.2-0.6,0.2-1.3,0.2-1.9
				c0-0.9,0-1.8-0.2-2.6C52.5,56.6,52.1,56.6,52.1,56.8L52.1,56.8z"/>
		</g>
	</g>
	<g>
		<g>
			<path fill="#1F1E5B" d="M50.1,56.8c-0.1,1-0.1,2,0,2.9c0,0.5-0.1,1.4,0.3,1.7c0.1,0.1,0.2,0,0.2,0c0.3-0.4,0-1.4,0-1.9
				c0-0.9,0-1.8-0.1-2.7C50.5,56.6,50.1,56.6,50.1,56.8L50.1,56.8z"/>
		</g>
	</g>
	<g>
		<g>
			<path fill="#1F1E5B" d="M48.5,57.2c-0.2,1.2-0.1,2.6,0,3.9c0,0.4,0.6,0.3,0.6-0.1c-0.1-1.2,0-2.6-0.2-3.8
				C48.8,57,48.5,57,48.5,57.2L48.5,57.2z"/>
		</g>
	</g>
	<g>
		<g>
			<path fill="#1F1E5B" d="M44.7,56.7c-1.2-0.1-2.5,0-3.7,0c-1.3,0-2.7-0.2-4-0.2c-0.3,0-0.4,0.4-0.1,0.5c2.4,0.6,5.3,0.4,7.8,0.2
				C45,57.1,45,56.7,44.7,56.7L44.7,56.7z"/>
		</g>
	</g>
	<g>
		<g>
			<path fill="#1F1E5B" d="M43.7,57c-0.1,1.3,0,2.6-0.1,3.9c0,0.3,0.4,0.4,0.5,0.1c0.3-1.3,0.2-2.8,0.1-4.1
				C44.1,56.7,43.7,56.7,43.7,57L43.7,57z"/>
		</g>
	</g>
	<g>
		<g>
			<path fill="#1F1E5B" d="M41.9,56.9c-0.1,0.7,0,1.4,0,2c0,0.6,0,1.3,0.1,2c0,0.3,0.5,0.3,0.5,0c0-0.6,0-1.3-0.1-1.9
				c0-0.7,0-1.5-0.1-2.1C42.2,56.7,41.9,56.7,41.9,56.9L41.9,56.9z"/>
		</g>
	</g>
	<g>
		<g>
			<path fill="#1F1E5B" d="M39.6,56.9c0,0.7,0,1.4,0,2.1c0,0.6-0.1,1.2,0,1.8c0,0.3,0.5,0.3,0.5,0c0.1-1.2,0.2-2.7-0.1-3.9
				C40,56.7,39.6,56.7,39.6,56.9L39.6,56.9z"/>
		</g>
	</g>
	<g>
		<g>
			<path fill="#1F1E5B" d="M38,56.9c-0.2,1.4-0.2,2.8-0.2,4.2c0,0.3,0.6,0.3,0.6,0c0-1.4,0.2-2.8,0-4.2C38.4,56.7,38,56.7,38,56.9
				L38,56.9z"/>
		</g>
	</g>
	<g>
		<g>
			<path fill="#1F1E5B" d="M33.8,56.5c-0.8-0.4-2.2-0.1-3.1-0.1c-1.1,0-2.4-0.1-3.4,0.1c-0.3,0.1-0.2,0.4,0,0.5c1,0.2,2.3,0,3.4,0
				c0.9,0,2.4,0.2,3.2-0.2C33.9,56.7,33.9,56.5,33.8,56.5L33.8,56.5z"/>
		</g>
	</g>
	<g>
		<g>
			<path fill="#1F1E5B" d="M32.2,57c-0.1,0.7,0,1.5,0,2.2c0,0.5-0.1,1.2,0.1,1.8c0.1,0.2,0.4,0.2,0.4,0c0.2-0.5,0.1-1.2,0-1.7
				c0-0.7,0.1-1.5-0.1-2.2C32.5,56.7,32.2,56.7,32.2,57L32.2,57z"/>
		</g>
	</g>
	<g>
		<g>
			<path fill="#1F1E5B" d="M30.5,56.7c-0.2,0.7,0,1.5,0,2.2c0,0.4,0,0.8,0,1.2c0,0.2-0.1,0.5,0,0.7c0,0.2,0.2,0.2,0.3,0.1
				c0.5-0.3,0.3-1.3,0.3-1.8c0-0.8,0-1.8-0.2-2.5C30.7,56.6,30.5,56.6,30.5,56.7L30.5,56.7z"/>
		</g>
	</g>
	<g>
		<g>
			<path fill="#1F1E5B" d="M28.7,56.7c-0.2,0.7-0.1,1.5-0.1,2.2c0,0.7,0,1.3,0.2,1.9c0.1,0.2,0.5,0.2,0.5-0.1c0-0.7-0.1-1.4-0.1-2.1
				c0-0.6,0.1-1.3-0.1-2C29,56.6,28.8,56.5,28.7,56.7L28.7,56.7z"/>
		</g>
	</g>
	<g>
		<g>
			<path fill="#1F1E5B" d="M43.8,56.6c0.2-2,0.5-4.1,0.1-6.1c-0.3-1.4-1.8-3-3.3-2.6c-1.4,0.3-2.1,2.1-2.4,3.4
				c-0.2,0.9-0.2,1.9-0.2,2.8c0,0.9-0.1,1.9,0.2,2.8c0.1,0.3,0.5,0.1,0.5-0.2c-0.2-2.4-0.8-6.8,1.8-8.2c1-0.5,2.1,0.7,2.5,1.4
				c0.4,0.7,0.5,1.6,0.5,2.4c0,1.4-0.3,2.9-0.2,4.3C43.3,56.8,43.8,56.8,43.8,56.6L43.8,56.6z"/>
		</g>
	</g>
	<g>
		<g>
			<path fill="#1F1E5B" d="M41,48.3c-0.4,1.2-0.2,2.8-0.3,4c-0.1,1.4-0.4,3-0.1,4.3c0,0.3,0.4,0.2,0.5,0c0.3-1.3,0.1-2.9,0.2-4.2
				c0.1-1.2,0.4-2.9,0-4.1C41.3,48.2,41.1,48.1,41,48.3L41,48.3z"/>
		</g>
	</g>
	<g>
		<g>
			<path fill="#1F1E5B" d="M43.9,51.9c-0.4-0.6-1.5-0.6-2.2-0.6c-1-0.1-2.2-0.2-3.2,0.1c-0.3,0.1-0.2,0.4,0,0.5c0.8,0.2,1.7,0,2.5,0
				c0.9,0,1.8,0.3,2.7,0.4C43.9,52.2,44,52,43.9,51.9L43.9,51.9z"/>
		</g>
	</g>
	<g>
		<g>
			<path fill="#1F1E5B" d="M30.1,48.5c-0.7,1.3-0.4,3-0.3,4.4c0,1.2-0.1,2.4,0,3.5c0,0.1,0.1,0.2,0.2,0.2c0,0-0.1-0.1-0.1-0.1
				c0.1,0.3,0.5,0.2,0.4-0.1c0,0,0,0,0-0.1c-0.1-0.1-0.3-0.1-0.3,0c0,0,0,0,0,0.1c-0.1,0.2,0.3,0.4,0.4,0.1c0,0,0,0.1-0.1,0.1
				c0.1,0,0.2-0.1,0.2-0.2c0.1-1.2,0-2.3,0-3.5c0-1.5,0.1-2.9,0.1-4.4C30.5,48.4,30.2,48.4,30.1,48.5L30.1,48.5z"/>
		</g>
	</g>
	<g>
		<g>
			<path fill="#1F1E5B" d="M32.4,51.5c-1.5,0.1-3,0-4.6-0.1c-0.4,0-0.4,0.5-0.1,0.6c0.8,0.1,1.6,0.1,2.4,0.1c0.8,0,1.7,0.1,2.4-0.2
				C32.9,51.9,32.7,51.5,32.4,51.5L32.4,51.5z"/>
		</g>
	</g>
	<g>
		<g>
			<path fill="#1F1E5B" d="M54.4,56.7c0.5-1.9,0.7-4.3,0.1-6.1c-0.3-1.3-1.7-3.1-3.2-2.6c-1.3,0.5-2.1,1.9-2.3,3.2
				c-0.2,0.9-0.1,2-0.1,2.9c0,1,0.1,1.9,0.2,2.9c0.1,0.4,0.6,0.3,0.6-0.1c-0.2-1.5-0.2-3-0.2-4.5c0-1.3,0.4-2.6,1.4-3.5
				c1.8-1.6,3.1,1.6,3.3,3c0.2,1.6-0.3,3.2-0.1,4.8C54.1,56.8,54.4,56.9,54.4,56.7L54.4,56.7z"/>
		</g>
	</g>
	<g>
		<g>
			<path fill="#1F1E5B" d="M52,48.5c-0.2,1.4-0.1,2.9-0.2,4.3c-0.1,1.4-0.2,2.9-0.1,4.3c0,0.3,0.4,0.2,0.5,0
				c0.2-1.3,0.2-2.8,0.2-4.2c0-1.5,0.2-3,0-4.4C52.4,48.3,52,48.3,52,48.5L52,48.5z"/>
		</g>
	</g>
	<g>
		<g>
			<path fill="#1F1E5B" d="M54.5,51.7c-1.6-0.1-3.3-0.3-5,0c-0.4,0.1-0.3,0.6,0.1,0.6c1.6-0.2,3.2,0.1,4.9,0
				C54.8,52.2,54.8,51.7,54.5,51.7L54.5,51.7z"/>
		</g>
	</g>
	<g>
		<g>
			<path fill="#1F1E5B" d="M65,56.5c0.3-2.3,1-8.1-2.7-8.2c-1.4-0.1-2.6,1.4-2.9,2.6c-0.2,0.9-0.2,1.8-0.2,2.7
				c0,1.1-0.2,2.2-0.1,3.3c0,0.3,0.4,0.2,0.5,0c0.2-1.4,0.2-2.9,0.3-4.3c0.1-1.6,0.4-3.3,2.2-3.7c1.9-0.5,2.5,2.2,2.6,3.5
				c0.1,1.4-0.2,2.8-0.1,4.1C64.6,56.8,65,56.7,65,56.5L65,56.5z"/>
		</g>
	</g>
	<g>
		<g>
			<path fill="#1F1E5B" d="M61.9,48.6c-0.1,1.6-0.3,3.1-0.4,4.7c-0.1,1.2-0.2,2.7,0.2,3.9c0.1,0.3,0.5,0.1,0.5-0.1
				c-0.1-1.4-0.2-2.7-0.1-4.1c0.1-1.4,0.3-2.9,0.3-4.3C62.4,48.4,61.9,48.3,61.9,48.6L61.9,48.6z"/>
		</g>
	</g>
	<g>
		<g>
			<path fill="#1F1E5B" d="M65,51.7c-1.6-0.4-3.6,0-5.3,0.1c-0.4,0-0.3,0.6,0.1,0.6c0.9,0,1.7-0.1,2.6-0.1c0.9,0,1.8,0,2.6-0.2
				C65.2,52,65.2,51.7,65,51.7L65,51.7z"/>
		</g>
	</g>
	<g>
		<g>
			<path fill="#1F1E5B" d="M75.8,56.4c0.5-2.5,1.1-7.7-2.4-8.3c-1.4-0.2-2.6,1.1-2.8,2.4c-0.2,0.9-0.1,1.9-0.2,2.8
				c-0.1,0.9-0.2,2,0.1,2.9c0.1,0.2,0.4,0.1,0.4-0.1c0.1-1.3,0.1-2.7,0.1-4c0-1.5,0.5-3.5,2.4-3.4c1.6,0.1,2.1,2.1,2.2,3.4
				c0.1,1.4-0.2,2.9-0.1,4.3C75.4,56.6,75.7,56.7,75.8,56.4L75.8,56.4z"/>
		</g>
	</g>
	<g>
		<g>
			<path fill="#1F1E5B" d="M75.6,52.2c-1.5-0.4-3.4-0.4-5,0c-0.4,0.1-0.3,0.7,0.1,0.6c1.6-0.4,3.1-0.3,4.7-0.1
				C75.8,52.7,75.9,52.3,75.6,52.2L75.6,52.2z"/>
		</g>
	</g>
	<g>
		<g>
			<path fill="#1F1E5B" d="M72.8,48.4c-0.4,2.7-0.6,5.6-0.2,8.3c0,0.4,0.6,0.3,0.6-0.1c-0.3-2.7,0.4-5.5,0.1-8.2
				C73.2,48.1,72.9,48.1,72.8,48.4L72.8,48.4z"/>
		</g>
	</g>
	<g>
		<g>
			<path fill="#1F1E5B" d="M13.4,57.6c0.6-0.1,1-0.7,0.8-1.3c-0.2-0.6-0.8-0.9-1.4-0.6c-0.6,0.2-0.8,0.9-0.5,1.4
				c0.2,0.6,1,0.9,1.6,0.6c0.3-0.1,0.1-0.6-0.2-0.5c-0.3,0.1-0.6,0.1-0.8-0.3c-0.1-0.2-0.1-0.5,0.1-0.7c0.3-0.2,0.6-0.1,0.7,0.2
				c0.2,0.3-0.1,0.6-0.4,0.7C12.9,57.2,13.1,57.6,13.4,57.6L13.4,57.6z"/>
		</g>
		<g>
			<path fill="#1F1E5B" d="M13.3,55.8c0.1-0.8,0-1.8,0-2.6c0-0.4-0.5-0.4-0.5-0.1c0,0.9,0,1.8,0.1,2.7C13,56.1,13.3,56,13.3,55.8
				L13.3,55.8z"/>
		</g>
		<g>
			<path fill="#1F1E5B" d="M17.3,60c-1.1-0.1-1.3-0.7-1.9-1.5c-0.5-0.7-1.2-1.1-2-1.2c-0.7-0.1-1.3,0.3-1.8,0.6
				c-0.5,0.4-1.3,2.3-1.9,2.2c-0.3-0.1-0.4,0.4-0.1,0.5c0.5,0.2,0.9,0,1.2-0.4c0.8-1.1,1.3-2.8,3.1-2.2c1.2,0.4,2,3.4,3.6,2.3
				C17.5,60.2,17.4,60,17.3,60L17.3,60z"/>
		</g>
		<g>
			<path fill="#1F1E5B" d="M15.9,60.2c-1.8-0.2-3.7,0-5.5,0c-0.4,0-0.4,0.6-0.1,0.6c1.8,0,3.7,0.1,5.5-0.1
				C16.2,60.6,16.2,60.2,15.9,60.2L15.9,60.2z"/>
		</g>
		<g>
			<path fill="#1F1E5B" d="M16.2,60.5C16.2,60.5,16.2,60.5,16.2,60.5c-0.1-0.1-0.2,0-0.3,0c-0.6,0.5-0.8,1.6-1.1,2.3
				c-0.2,0.8-0.6,1.9-0.6,2.7c0,0.4,0.6,0.4,0.6,0c0-0.1-0.1-0.3-0.2-0.3c0,0-0.1,0-0.2,0c-0.1,0.1-0.2,0.2-0.2,0.4
				c0,0.4,0.6,0.4,0.6,0.1c0-1,0.5-2.3,0.8-3.2C15.7,62.1,16.6,60.7,16.2,60.5L16.2,60.5z"/>
		</g>
		<g>
			<path fill="#1F1E5B" d="M12.6,60.5c-0.2,1.6,0.1,3.3,0.1,4.9c0,0.4,0.5,0.4,0.6,0.1c0.2-1.6,0-3.4-0.2-4.9
				C13,60.2,12.6,60.2,12.6,60.5L12.6,60.5z"/>
		</g>
		<g>
			<path fill="#1F1E5B" d="M9.7,60.6c0,0.8,0.5,1.5,0.8,2.2c0.5,1,0.9,2,1.1,3.1c0.1,0.4,0.6,0.3,0.5-0.1c-0.1-0.9-0.4-1.8-0.8-2.6
				c-0.4-0.9-0.8-1.9-1.4-2.7C9.8,60.3,9.7,60.5,9.7,60.6L9.7,60.6z"/>
		</g>
		<g>
			<path fill="#1F1E5B" d="M14.4,65.7c-0.3-0.3-0.7-0.3-1-0.3c-0.5,0-1,0-1.5,0.2c-0.3,0.2-0.1,0.7,0.3,0.5c0.7-0.3,1.4-0.1,2-0.1
				C14.3,66.1,14.5,65.8,14.4,65.7L14.4,65.7z"/>
		</g>
		<g>
			<path fill="#1F1E5B" d="M12.7,66c-0.2,0.5-0.2,1.1-0.2,1.6c0,0.6,0,1.3,0.2,1.9c0,0.1,0.1,0.2,0.2,0.2c0,0,0.1,0,0.1,0
				c0.1,0,0.1,0,0.2-0.1c0.3-0.3,0-1.1-0.1-1.5c0-0.7,0.1-1.4,0.1-2.1C13.1,65.9,12.8,65.8,12.7,66L12.7,66z"/>
		</g>
		<g>
			<path fill="#1F1E5B" d="M13.6,70.9c0.3-0.3,0.3-0.9,0-1.2c-0.3-0.3-0.8-0.4-1.1-0.1c-0.3,0.2-0.5,0.6-0.4,1
				c0.1,0.5,0.7,0.6,1.1,0.6c0.3-0.1,0.3-0.5,0-0.5c-0.1,0-0.3,0-0.4-0.1c0,0-0.1-0.1-0.1,0c0,0,0-0.1,0,0c0-0.1,0-0.3,0.1-0.4
				c0.1-0.2,0.2-0.2,0.4,0c0.2,0.1,0.1,0.4,0,0.6C13.1,71,13.5,71.1,13.6,70.9L13.6,70.9z"/>
		</g>
		<g>
			<path fill="#1F1E5B" d="M22.7,67.1c-3.2,0.3-6.5,0.1-9.7,0.5c-0.4,0-0.3,0.6,0.1,0.6c3.2-0.2,6.5,0,9.7-0.5
				C23.1,67.5,23,67,22.7,67.1L22.7,67.1z"/>
		</g>
		<g>
			<path fill="#1F1E5B" d="M15.8,70.2c0.8,0.6-0.2,1.4-0.9,1c-1-0.6-0.5-2.2,0.3-2.5c0.7-0.3,1.6,0,2.1,0.5c0.5,0.6,0.5,1.6,0.6,2.3
				c0.1,1.2,0.4,2.2,1.5,2.7c1.2,0.5,2.6,0.2,3.4-0.8c1.8-2.2-1.2-5.1-3.3-3.1c-0.8,0.8-0.4,2.1,0.6,2.4c1,0.3,1.7-0.4,1.2-1.3
				c-0.1-0.2-0.5-0.1-0.4,0.1c0.1,0.6-0.3,0.7-0.8,0.5c-1-0.3-0.3-1.4,0.2-1.7c0.9-0.5,2.1,0.1,2.3,1.1c0.5,2-2.3,3-3.6,1.8
				c-0.8-0.8-0.6-2.6-0.8-3.7c-0.2-0.9-1.1-1.5-2-1.6c-1.9-0.4-3.4,2.3-1.8,3.6c1.3,1,3.2-0.9,1.7-1.8C15.8,69.6,15.5,70,15.8,70.2
				L15.8,70.2z"/>
		</g>
		<g>
			<path fill="#1F1E5B" d="M21.1,69.5c-0.3-0.1-0.5-0.1-0.8-0.4c-0.2-0.2-0.2-0.5,0-0.7c0.1-0.2,0.7-0.5,0.9-0.3
				c0.1,0.1,0.1,0.2,0.1,0.4c0,0.1-0.1,0.3-0.2,0.1c-0.2-0.3-0.7-0.1-0.5,0.3c0.3,0.7,1.2,0.4,1.3-0.3c0.1-0.7-0.4-1.3-1.1-1.1
				c-0.7,0.2-1.2,0.8-1.1,1.5c0.1,0.6,0.8,1.3,1.4,1C21.3,69.8,21.3,69.6,21.1,69.5L21.1,69.5z"/>
		</g>
	</g>
</g>
</svg>
